<?xml version="1.0" encoding="UTF-8" standalone="no"?>
<!-- Created with Inkscape (http://www.inkscape.org/) -->

<svg
   xmlns:dc="http://purl.org/dc/elements/1.1/"
   xmlns:cc="http://creativecommons.org/ns#"
   xmlns:rdf="http://www.w3.org/1999/02/22-rdf-syntax-ns#"
   xmlns:svg="http://www.w3.org/2000/svg"
   xmlns="http://www.w3.org/2000/svg"
   xmlns:xlink="http://www.w3.org/1999/xlink"
   xmlns:sodipodi="http://sodipodi.sourceforge.net/DTD/sodipodi-0.dtd"
   xmlns:inkscape="http://www.inkscape.org/namespaces/inkscape"
   width="189.27296"
   height="247.07228"
   id="svg7016"
   version="1.1"
   inkscape:version="0.48.2 r9819"
   sodipodi:docname="header-sun.svg">
  <defs
     id="defs7018">
    <linearGradient
       inkscape:collect="always"
       xlink:href="#linearGradient14579-3-9"
       id="linearGradient8147"
       gradientUnits="userSpaceOnUse"
       gradientTransform="matrix(4.3678005,0,0,0.5387059,-1684.5694,1781.2407)"
       x1="244.16652"
       y1="412.40631"
       x2="244.16652"
       y2="173.46973" />
    <linearGradient
       inkscape:collect="always"
       id="linearGradient14579-3-9">
      <stop
         style="stop-color:#ffffff;stop-opacity:1;"
         offset="0"
         id="stop14581-9-3" />
      <stop
         style="stop-color:#ffffff;stop-opacity:0;"
         offset="1"
         id="stop14583-0-3" />
    </linearGradient>
    <linearGradient
       inkscape:collect="always"
       xlink:href="#linearGradient14579-3-9"
       id="linearGradient6865-6"
       gradientUnits="userSpaceOnUse"
       gradientTransform="matrix(4.3678005,0,0,0.30741007,-1596.5694,1792.3515)"
       x1="244.16652"
       y1="412.40631"
       x2="244.16652"
       y2="270.36816" />
  </defs>
  <sodipodi:namedview
     id="base"
     pagecolor="#ffffff"
     bordercolor="#666666"
     borderopacity="1.0"
     inkscape:pageopacity="0.0"
     inkscape:pageshadow="2"
     inkscape:zoom="1.4"
     inkscape:cx="162.77096"
     inkscape:cy="132.8896"
     inkscape:document-units="px"
     inkscape:current-layer="layer1"
     showgrid="false"
     fit-margin-top="0"
     fit-margin-left="0"
     fit-margin-right="0"
     fit-margin-bottom="0"
     inkscape:window-width="897"
     inkscape:window-height="531"
     inkscape:window-x="21"
     inkscape:window-y="20"
     inkscape:window-maximized="0" />
  <metadata
     id="metadata7021">
    <rdf:RDF>
      <cc:Work
         rdf:about="">
        <dc:format>image/svg+xml</dc:format>
        <dc:type
           rdf:resource="http://purl.org/dc/dcmitype/StillImage" />
        <dc:title />
      </cc:Work>
    </rdf:RDF>
  </metadata>
  <g
     inkscape:label="Layer 1"
     inkscape:groupmode="layer"
     id="layer1"
     transform="translate(-203.6278,-122.3205)">
    <g
       transform="translate(900.71961,-1750.3688)"
       id="g6807">
      <path
         sodipodi:nodetypes="cc"
         style="fill:none;stroke:url(#linearGradient8147);stroke-width:2;stroke-linecap:butt;stroke-linejoin:miter;stroke-miterlimit:4;stroke-opacity:1;stroke-dasharray:none"
         d="m -622.09181,2001.7612 0,-127.6425"
         id="path8145"
         inkscape:connector-curvature="0" />
      <g
         transform="translate(220,-40)"
         id="g6801">
        <path
           transform="matrix(17.317616,-9.9983295,9.9983306,17.317617,-4406.3583,-19.408857)"
           d="m 104.5,180.25 c 0,1.51878 -1.23122,2.75 -2.75,2.75 -1.51878,0 -2.75,-1.23122 -2.75,-2.75 0,-1.51878 1.23122,-2.75 2.75,-2.75 1.51878,0 2.75,1.23122 2.75,2.75 z"
           sodipodi:ry="2.75"
           sodipodi:rx="2.75"
           sodipodi:cy="180.25"
           sodipodi:cx="101.75"
           id="path8079"
           style="color:#000000;fill:#ffd500;fill-opacity:0.1690821;fill-rule:nonzero;stroke:none;stroke-width:1;marker:none;visibility:visible;display:inline;overflow:visible;enable-background:accumulate"
           sodipodi:type="arc" />
        <path
           sodipodi:type="arc"
           style="color:#000000;fill:#ffd500;fill-opacity:0.1690821;fill-rule:nonzero;stroke:none;stroke-width:1;marker:none;visibility:visible;display:inline;overflow:visible;enable-background:accumulate"
           id="path8110"
           sodipodi:cx="101.75"
           sodipodi:cy="180.25"
           sodipodi:rx="2.75"
           sodipodi:ry="2.75"
           d="m 104.5,180.25 c 0,1.51878 -1.23122,2.75 -2.75,2.75 -1.51878,0 -2.75,-1.23122 -2.75,-2.75 0,-1.51878 1.23122,-2.75 2.75,-2.75 1.51878,0 2.75,1.23122 2.75,2.75 z"
           transform="matrix(20.466274,-11.816209,11.816209,20.466274,-5054.4069,-401.98504)" />
        <path
           transform="matrix(23.614931,-13.634087,13.634088,23.614932,-5702.4554,-784.56156)"
           d="m 104.5,180.25 c 0,1.51878 -1.23122,2.75 -2.75,2.75 -1.51878,0 -2.75,-1.23122 -2.75,-2.75 0,-1.51878 1.23122,-2.75 2.75,-2.75 1.51878,0 2.75,1.23122 2.75,2.75 z"
           sodipodi:ry="2.75"
           sodipodi:rx="2.75"
           sodipodi:cy="180.25"
           sodipodi:cx="101.75"
           id="path8112"
           style="color:#000000;fill:#ffd500;fill-opacity:0.1690821;fill-rule:nonzero;stroke:none;stroke-width:1;marker:none;visibility:visible;display:inline;overflow:visible;enable-background:accumulate"
           sodipodi:type="arc" />
        <path
           sodipodi:type="arc"
           style="color:#000000;fill:#ffd500;fill-opacity:1;fill-rule:nonzero;stroke:none;stroke-width:1;marker:none;visibility:visible;display:inline;overflow:visible;enable-background:accumulate"
           id="path8077"
           sodipodi:cx="101.75"
           sodipodi:cy="180.25"
           sodipodi:rx="2.75"
           sodipodi:ry="2.75"
           d="m 104.5,180.25 c 0,1.51878 -1.23122,2.75 -2.75,2.75 -1.51878,0 -2.75,-1.23122 -2.75,-2.75 0,-1.51878 1.23122,-2.75 2.75,-2.75 1.51878,0 2.75,1.23122 2.75,2.75 z"
           transform="matrix(14.168959,-8.1804523,8.1804524,14.168959,-3758.3099,363.16774)" />
      </g>
      <g
         id="g6817"
         transform="matrix(1.0199983,0,0,1,12.174782,-20.287262)">
        <path
           sodipodi:nodetypes="ccc"
           inkscape:connector-curvature="0"
           id="path8185"
           d="m -622.03387,2018.1723 c -3.81238,-6.4326 -9.8446,-6.6582 -9.8446,-6.6582 0,0 0.0965,6.7147 9.16898,7.5612"
           style="fill:none;stroke:#ffffff;stroke-width:1.98029673;stroke-linecap:butt;stroke-linejoin:miter;stroke-miterlimit:4;stroke-opacity:1;stroke-dasharray:none" />
        <path
           style="fill:none;stroke:#ffffff;stroke-width:1.98029673;stroke-linecap:butt;stroke-linejoin:miter;stroke-miterlimit:4;stroke-opacity:1;stroke-dasharray:none"
           d="m -621.84618,2018.1723 c 3.81237,-6.4326 9.8446,-6.6582 9.8446,-6.6582 0,0 -0.0965,6.7147 -9.16899,7.5612"
           id="path8187"
           inkscape:connector-curvature="0"
           sodipodi:nodetypes="ccc" />
      </g>
      <path
         inkscape:connector-curvature="0"
         id="path6857"
         d="m -534.09181,1918.1906 0,-44.5013"
         style="fill:none;stroke:url(#linearGradient6865-6);stroke-width:2;stroke-linecap:butt;stroke-linejoin:miter;stroke-miterlimit:4;stroke-opacity:1;stroke-dasharray:none"
         sodipodi:nodetypes="cc" />
      <g
         transform="matrix(1.0199983,0,0,1,100.17478,-104.28726)"
         id="g6859">
        <path
           style="fill:none;stroke:#ffffff;stroke-width:1.98029673;stroke-linecap:butt;stroke-linejoin:miter;stroke-miterlimit:4;stroke-opacity:1;stroke-dasharray:none"
           d="m -622.03387,2018.1723 c -3.81238,-6.4326 -9.8446,-6.6582 -9.8446,-6.6582 0,0 0.0965,6.7147 9.16898,7.5612"
           id="path6861"
           inkscape:connector-curvature="0"
           sodipodi:nodetypes="ccc" />
        <path
           sodipodi:nodetypes="ccc"
           inkscape:connector-curvature="0"
           id="path6863"
           d="m -621.84618,2018.1723 c 3.81237,-6.4326 9.8446,-6.6582 9.8446,-6.6582 0,0 -0.0965,6.7147 -9.16899,7.5612"
           style="fill:none;stroke:#ffffff;stroke-width:1.98029673;stroke-linecap:butt;stroke-linejoin:miter;stroke-miterlimit:4;stroke-opacity:1;stroke-dasharray:none" />
      </g>
    </g>
    <g
       id="g7830"
       transform="translate(0.08071,0.08791)">
      <path
         transform="matrix(8.643065,-4.990076,4.990076,8.643065,-1413.523,-857.5435)"
         d="m 104.5,180.25 c 0,1.51878 -1.23122,2.75 -2.75,2.75 -1.51878,0 -2.75,-1.23122 -2.75,-2.75 0,-1.51878 1.23122,-2.75 2.75,-2.75 1.51878,0 2.75,1.23122 2.75,2.75 z"
         sodipodi:ry="2.75"
         sodipodi:rx="2.75"
         sodipodi:cy="180.25"
         sodipodi:cx="101.75"
         id="path6821-0"
         style="color:#000000;fill:#00bdf1;fill-opacity:1;fill-rule:nonzero;stroke:none;stroke-width:1;marker:none;visibility:visible;display:inline;overflow:visible;enable-background:accumulate"
         sodipodi:type="arc" />
      <path
         sodipodi:type="arc"
         style="color:#000000;fill:#00c4f9;fill-opacity:1;fill-rule:nonzero;stroke:none;stroke-width:1;marker:none;visibility:visible;display:inline;overflow:visible;enable-background:accumulate"
         id="path7688"
         sodipodi:cx="101.75"
         sodipodi:cy="180.25"
         sodipodi:rx="2.75"
         sodipodi:ry="2.75"
         d="m 104.5,180.25 c 0,1.51878 -1.23122,2.75 -2.75,2.75 -1.51878,0 -2.75,-1.23122 -2.75,-2.75 0,-1.51878 1.23122,-2.75 2.75,-2.75 1.51878,0 2.75,1.23122 2.75,2.75 z"
         transform="matrix(0.63283579,-0.36541308,0.36536796,0.632914,240.28503,131.25705)" />
      <path
         sodipodi:type="arc"
         style="color:#000000;fill:#00aef0;fill-opacity:1;fill-rule:nonzero;stroke:none;stroke-width:1;marker:none;visibility:visible;display:inline;overflow:visible;enable-background:accumulate"
         id="path14393-9-8"
         sodipodi:cx="101.75"
         sodipodi:cy="180.25"
         sodipodi:rx="2.75"
         sodipodi:ry="2.75"
         d="m 104.5,180.25 c 0,1.51878 -1.23122,2.75 -2.75,2.75 -1.51878,0 -2.75,-1.23122 -2.75,-2.75 0,-1.51878 1.23122,-2.75 2.75,-2.75 1.51878,0 2.75,1.23122 2.75,2.75 z"
         transform="matrix(2.4504309,-1.4149317,1.414757,2.4507336,-130.75157,-97.969483)" />
      <path
         sodipodi:type="arc"
         style="color:#000000;fill:#00c4f9;fill-opacity:1;fill-rule:nonzero;stroke:none;stroke-width:1;marker:none;visibility:visible;display:inline;overflow:visible;enable-background:accumulate"
         id="path7686"
         sodipodi:cx="101.75"
         sodipodi:cy="180.25"
         sodipodi:rx="2.75"
         sodipodi:ry="2.75"
         d="m 104.5,180.25 c 0,1.51878 -1.23122,2.75 -2.75,2.75 -1.51878,0 -2.75,-1.23122 -2.75,-2.75 0,-1.51878 1.23122,-2.75 2.75,-2.75 1.51878,0 2.75,1.23122 2.75,2.75 z"
         transform="matrix(1.3446128,-0.77640846,0.77631259,1.3447788,94.723799,19.776317)" />
      <path
         sodipodi:type="arc"
         style="color:#000000;fill:#00aef0;fill-opacity:1;fill-rule:nonzero;stroke:none;stroke-width:1;marker:none;visibility:visible;display:inline;overflow:visible;enable-background:accumulate"
         id="path14397-1-8"
         sodipodi:cx="101.75"
         sodipodi:cy="180.25"
         sodipodi:rx="2.75"
         sodipodi:ry="2.75"
         d="m 104.5,180.25 c 0,1.51878 -1.23122,2.75 -2.75,2.75 -1.51878,0 -2.75,-1.23122 -2.75,-2.75 0,-1.51878 1.23122,-2.75 2.75,-2.75 1.51878,0 2.75,1.23122 2.75,2.75 z"
         transform="matrix(0.98872427,-0.5709108,0.57084027,0.98884642,173.70196,66.37753)" />
      <path
         transform="matrix(0.63283579,-0.36541308,0.36536796,0.632914,232.01284,119.34498)"
         d="m 104.5,180.25 c 0,1.51878 -1.23122,2.75 -2.75,2.75 -1.51878,0 -2.75,-1.23122 -2.75,-2.75 0,-1.51878 1.23122,-2.75 2.75,-2.75 1.51878,0 2.75,1.23122 2.75,2.75 z"
         sodipodi:ry="2.75"
         sodipodi:rx="2.75"
         sodipodi:cy="180.25"
         sodipodi:cx="101.75"
         id="path14399-1-8"
         style="color:#000000;fill:#00aef0;fill-opacity:1;fill-rule:nonzero;stroke:none;stroke-width:1;marker:none;visibility:visible;display:inline;overflow:visible;enable-background:accumulate"
         sodipodi:type="arc" />
      <path
         sodipodi:type="arc"
         style="color:#000000;fill:#00aef0;fill-opacity:1;fill-rule:nonzero;stroke:none;stroke-width:1;marker:none;visibility:visible;display:inline;overflow:visible;enable-background:accumulate"
         id="path14405-8-8"
         sodipodi:cx="101.75"
         sodipodi:cy="180.25"
         sodipodi:rx="2.75"
         sodipodi:ry="2.75"
         d="m 104.5,180.25 c 0,1.51878 -1.23122,2.75 -2.75,2.75 -1.51878,0 -2.75,-1.23122 -2.75,-2.75 0,-1.51878 1.23122,-2.75 2.75,-2.75 1.51878,0 2.75,1.23122 2.75,2.75 z"
         transform="matrix(1.3446128,-0.77640846,0.77631259,1.3447788,90.772649,26.837417)" />
      <path
         transform="matrix(0.92940954,-0.53666114,0.53659489,0.92952432,175.26916,94.009216)"
         d="m 104.5,180.25 c 0,1.51878 -1.23122,2.75 -2.75,2.75 -1.51878,0 -2.75,-1.23122 -2.75,-2.75 0,-1.51878 1.23122,-2.75 2.75,-2.75 1.51878,0 2.75,1.23122 2.75,2.75 z"
         sodipodi:ry="2.75"
         sodipodi:rx="2.75"
         sodipodi:cy="180.25"
         sodipodi:cx="101.75"
         id="path14407-8-2"
         style="color:#000000;fill:#00aef0;fill-opacity:1;fill-rule:nonzero;stroke:none;stroke-width:1;marker:none;visibility:visible;display:inline;overflow:visible;enable-background:accumulate"
         sodipodi:type="arc" />
      <path
         sodipodi:type="arc"
         style="color:#000000;fill:#00aef0;fill-opacity:1;fill-rule:nonzero;stroke:none;stroke-width:1;marker:none;visibility:visible;display:inline;overflow:visible;enable-background:accumulate"
         id="path14409-6-2"
         sodipodi:cx="101.75"
         sodipodi:cy="180.25"
         sodipodi:rx="2.75"
         sodipodi:ry="2.75"
         d="m 104.5,180.25 c 0,1.51878 -1.23122,2.75 -2.75,2.75 -1.51878,0 -2.75,-1.23122 -2.75,-2.75 0,-1.51878 1.23122,-2.75 2.75,-2.75 1.51878,0 2.75,1.23122 2.75,2.75 z"
         transform="matrix(0.38118469,-0.22010427,0.22007709,0.38123177,304.37312,145.16136)" />
      <path
         transform="matrix(0.38118469,-0.22010427,0.22007709,0.38123177,294.27305,164.56205)"
         d="m 104.5,180.25 c 0,1.51878 -1.23122,2.75 -2.75,2.75 -1.51878,0 -2.75,-1.23122 -2.75,-2.75 0,-1.51878 1.23122,-2.75 2.75,-2.75 1.51878,0 2.75,1.23122 2.75,2.75 z"
         sodipodi:ry="2.75"
         sodipodi:rx="2.75"
         sodipodi:cy="180.25"
         sodipodi:cx="101.75"
         id="path14411-2-1"
         style="color:#000000;fill:#00aef0;fill-opacity:1;fill-rule:nonzero;stroke:none;stroke-width:1;marker:none;visibility:visible;display:inline;overflow:visible;enable-background:accumulate"
         sodipodi:type="arc" />
      <path
         sodipodi:type="arc"
         style="color:#000000;fill:#00aef0;fill-opacity:1;fill-rule:nonzero;stroke:none;stroke-width:1;marker:none;visibility:visible;display:inline;overflow:visible;enable-background:accumulate"
         id="path14413-1-0"
         sodipodi:cx="101.75"
         sodipodi:cy="180.25"
         sodipodi:rx="2.75"
         sodipodi:ry="2.75"
         d="m 104.5,180.25 c 0,1.51878 -1.23122,2.75 -2.75,2.75 -1.51878,0 -2.75,-1.23122 -2.75,-2.75 0,-1.51878 1.23122,-2.75 2.75,-2.75 1.51878,0 2.75,1.23122 2.75,2.75 z"
         transform="matrix(0.38118469,-0.22010427,0.22007709,0.38123177,280.9878,149.31762)" />
      <path
         transform="matrix(1.3446128,-0.77640846,0.77631259,1.3447788,76.308369,19.515977)"
         d="m 104.5,180.25 c 0,1.51878 -1.23122,2.75 -2.75,2.75 -1.51878,0 -2.75,-1.23122 -2.75,-2.75 0,-1.51878 1.23122,-2.75 2.75,-2.75 1.51878,0 2.75,1.23122 2.75,2.75 z"
         sodipodi:ry="2.75"
         sodipodi:rx="2.75"
         sodipodi:cy="180.25"
         sodipodi:cx="101.75"
         id="path7160"
         style="color:#000000;fill:#00aef0;fill-opacity:1;fill-rule:nonzero;stroke:none;stroke-width:1;marker:none;visibility:visible;display:inline;overflow:visible;enable-background:accumulate"
         sodipodi:type="arc" />
      <path
         sodipodi:type="arc"
         style="color:#000000;fill:#00aef0;fill-opacity:1;fill-rule:nonzero;stroke:none;stroke-width:1;marker:none;visibility:visible;display:inline;overflow:visible;enable-background:accumulate"
         id="path7162"
         sodipodi:cx="101.75"
         sodipodi:cy="180.25"
         sodipodi:rx="2.75"
         sodipodi:ry="2.75"
         d="m 104.5,180.25 c 0,1.51878 -1.23122,2.75 -2.75,2.75 -1.51878,0 -2.75,-1.23122 -2.75,-2.75 0,-1.51878 1.23122,-2.75 2.75,-2.75 1.51878,0 2.75,1.23122 2.75,2.75 z"
         transform="matrix(0.63283579,-0.36541308,0.36536796,0.632914,226.29856,110.77355)" />
      <path
         transform="matrix(0.38118469,-0.22010427,0.22007709,0.38123177,273.68974,144.90884)"
         d="m 104.5,180.25 c 0,1.51878 -1.23122,2.75 -2.75,2.75 -1.51878,0 -2.75,-1.23122 -2.75,-2.75 0,-1.51878 1.23122,-2.75 2.75,-2.75 1.51878,0 2.75,1.23122 2.75,2.75 z"
         sodipodi:ry="2.75"
         sodipodi:rx="2.75"
         sodipodi:cy="180.25"
         sodipodi:cx="101.75"
         id="path7164"
         style="color:#000000;fill:#00aef0;fill-opacity:1;fill-rule:nonzero;stroke:none;stroke-width:1;marker:none;visibility:visible;display:inline;overflow:visible;enable-background:accumulate"
         sodipodi:type="arc" />
      <path
         transform="matrix(1.3446128,-0.77640846,0.77631259,1.3447788,73.031849,37.696567)"
         d="m 104.5,180.25 c 0,1.51878 -1.23122,2.75 -2.75,2.75 -1.51878,0 -2.75,-1.23122 -2.75,-2.75 0,-1.51878 1.23122,-2.75 2.75,-2.75 1.51878,0 2.75,1.23122 2.75,2.75 z"
         sodipodi:ry="2.75"
         sodipodi:rx="2.75"
         sodipodi:cy="180.25"
         sodipodi:cx="101.75"
         id="path7682"
         style="color:#000000;fill:#00c4f9;fill-opacity:1;fill-rule:nonzero;stroke:none;stroke-width:1;marker:none;visibility:visible;display:inline;overflow:visible;enable-background:accumulate"
         sodipodi:type="arc" />
      <path
         transform="matrix(0.38118469,-0.22010427,0.22007709,0.38123177,273.72733,150.83283)"
         d="m 104.5,180.25 c 0,1.51878 -1.23122,2.75 -2.75,2.75 -1.51878,0 -2.75,-1.23122 -2.75,-2.75 0,-1.51878 1.23122,-2.75 2.75,-2.75 1.51878,0 2.75,1.23122 2.75,2.75 z"
         sodipodi:ry="2.75"
         sodipodi:rx="2.75"
         sodipodi:cy="180.25"
         sodipodi:cx="101.75"
         id="path7680"
         style="color:#000000;fill:#00aef0;fill-opacity:1;fill-rule:nonzero;stroke:none;stroke-width:1;marker:none;visibility:visible;display:inline;overflow:visible;enable-background:accumulate"
         sodipodi:type="arc" />
      <path
         transform="matrix(0.63283579,-0.36541308,0.36536796,0.632914,224.57603,127.4358)"
         d="m 104.5,180.25 c 0,1.51878 -1.23122,2.75 -2.75,2.75 -1.51878,0 -2.75,-1.23122 -2.75,-2.75 0,-1.51878 1.23122,-2.75 2.75,-2.75 1.51878,0 2.75,1.23122 2.75,2.75 z"
         sodipodi:ry="2.75"
         sodipodi:rx="2.75"
         sodipodi:cy="180.25"
         sodipodi:cx="101.75"
         id="path7684"
         style="color:#000000;fill:#00c4f9;fill-opacity:1;fill-rule:nonzero;stroke:none;stroke-width:1;marker:none;visibility:visible;display:inline;overflow:visible;enable-background:accumulate"
         sodipodi:type="arc" />
      <path
         transform="matrix(0.63283579,-0.36541308,0.36536796,0.632914,230.22713,107.02356)"
         d="m 104.5,180.25 c 0,1.51878 -1.23122,2.75 -2.75,2.75 -1.51878,0 -2.75,-1.23122 -2.75,-2.75 0,-1.51878 1.23122,-2.75 2.75,-2.75 1.51878,0 2.75,1.23122 2.75,2.75 z"
         sodipodi:ry="2.75"
         sodipodi:rx="2.75"
         sodipodi:cy="180.25"
         sodipodi:cx="101.75"
         id="path7690"
         style="color:#000000;fill:#00c4f9;fill-opacity:1;fill-rule:nonzero;stroke:none;stroke-width:1;marker:none;visibility:visible;display:inline;overflow:visible;enable-background:accumulate"
         sodipodi:type="arc" />
      <path
         sodipodi:type="arc"
         style="color:#000000;fill:#00c4f9;fill-opacity:1;fill-rule:nonzero;stroke:none;stroke-width:1;marker:none;visibility:visible;display:inline;overflow:visible;enable-background:accumulate"
         id="path7692"
         sodipodi:cx="101.75"
         sodipodi:cy="180.25"
         sodipodi:rx="2.75"
         sodipodi:ry="2.75"
         d="m 104.5,180.25 c 0,1.51878 -1.23122,2.75 -2.75,2.75 -1.51878,0 -2.75,-1.23122 -2.75,-2.75 0,-1.51878 1.23122,-2.75 2.75,-2.75 1.51878,0 2.75,1.23122 2.75,2.75 z"
         transform="matrix(0.63283579,-0.36541308,0.36536796,0.632914,254.24498,119.52357)" />
      <path
         transform="matrix(0.63283579,-0.36541308,0.36536796,0.632914,233.44142,97.470016)"
         d="m 104.5,180.25 c 0,1.51878 -1.23122,2.75 -2.75,2.75 -1.51878,0 -2.75,-1.23122 -2.75,-2.75 0,-1.51878 1.23122,-2.75 2.75,-2.75 1.51878,0 2.75,1.23122 2.75,2.75 z"
         sodipodi:ry="2.75"
         sodipodi:rx="2.75"
         sodipodi:cy="180.25"
         sodipodi:cx="101.75"
         id="path7694"
         style="color:#000000;fill:#00c4f9;fill-opacity:1;fill-rule:nonzero;stroke:none;stroke-width:1;marker:none;visibility:visible;display:inline;overflow:visible;enable-background:accumulate"
         sodipodi:type="arc" />
      <path
         sodipodi:type="arc"
         style="color:#000000;fill:#00c4f9;fill-opacity:1;fill-rule:nonzero;stroke:none;stroke-width:1;marker:none;visibility:visible;display:inline;overflow:visible;enable-background:accumulate"
         id="path7696"
         sodipodi:cx="101.75"
         sodipodi:cy="180.25"
         sodipodi:rx="2.75"
         sodipodi:ry="2.75"
         d="m 104.5,180.25 c 0,1.51878 -1.23122,2.75 -2.75,2.75 -1.51878,0 -2.75,-1.23122 -2.75,-2.75 0,-1.51878 1.23122,-2.75 2.75,-2.75 1.51878,0 2.75,1.23122 2.75,2.75 z"
         transform="matrix(0.38118469,-0.22010427,0.22007709,0.38123177,289.40402,165.62315)" />
      <path
         transform="matrix(0.38118469,-0.22010427,0.22007709,0.38123177,287.66969,125.9866)"
         d="m 104.5,180.25 c 0,1.51878 -1.23122,2.75 -2.75,2.75 -1.51878,0 -2.75,-1.23122 -2.75,-2.75 0,-1.51878 1.23122,-2.75 2.75,-2.75 1.51878,0 2.75,1.23122 2.75,2.75 z"
         sodipodi:ry="2.75"
         sodipodi:rx="2.75"
         sodipodi:cy="180.25"
         sodipodi:cx="101.75"
         id="path7698"
         style="color:#000000;fill:#00c4f9;fill-opacity:1;fill-rule:nonzero;stroke:none;stroke-width:1;marker:none;visibility:visible;display:inline;overflow:visible;enable-background:accumulate"
         sodipodi:type="arc" />
      <path
         sodipodi:type="arc"
         style="color:#000000;fill:#00c4f9;fill-opacity:1;fill-rule:nonzero;stroke:none;stroke-width:1;marker:none;visibility:visible;display:inline;overflow:visible;enable-background:accumulate"
         id="path7700"
         sodipodi:cx="101.75"
         sodipodi:cy="180.25"
         sodipodi:rx="2.75"
         sodipodi:ry="2.75"
         d="m 104.5,180.25 c 0,1.51878 -1.23122,2.75 -2.75,2.75 -1.51878,0 -2.75,-1.23122 -2.75,-2.75 0,-1.51878 1.23122,-2.75 2.75,-2.75 1.51878,0 2.75,1.23122 2.75,2.75 z"
         transform="matrix(0.38118469,-0.22010427,0.22007709,0.38123177,289.62685,129.20648)" />
    </g>
  </g>
</svg>
