<?xml version="1.0" encoding="UTF-8" standalone="no"?>
<!-- Created with Inkscape (http://www.inkscape.org/) -->

<svg
   xmlns:dc="http://purl.org/dc/elements/1.1/"
   xmlns:cc="http://creativecommons.org/ns#"
   xmlns:rdf="http://www.w3.org/1999/02/22-rdf-syntax-ns#"
   xmlns:svg="http://www.w3.org/2000/svg"
   xmlns="http://www.w3.org/2000/svg"
   xmlns:xlink="http://www.w3.org/1999/xlink"
   xmlns:sodipodi="http://sodipodi.sourceforge.net/DTD/sodipodi-0.dtd"
   xmlns:inkscape="http://www.inkscape.org/namespaces/inkscape"
   width="54.900002"
   height="109.0575"
   id="svg7016"
   version="1.1"
   inkscape:version="0.48.2 r9819"
   sodipodi:docname="header-planet.svg">
  <defs
     id="defs7018">
    <linearGradient
       inkscape:collect="always"
       xlink:href="#linearGradient14579-3"
       id="linearGradient6865"
       gradientUnits="userSpaceOnUse"
       gradientTransform="matrix(4.3678005,0,0,0.30741007,-1596.5694,1812.3515)"
       x1="244.16652"
       y1="412.40631"
       x2="244.16652"
       y2="57.673592" />
    <linearGradient
       inkscape:collect="always"
       id="linearGradient14579-3">
      <stop
         style="stop-color:#ffffff;stop-opacity:1;"
         offset="0"
         id="stop14581-9" />
      <stop
         style="stop-color:#ffffff;stop-opacity:0;"
         offset="1"
         id="stop14583-0" />
    </linearGradient>
    <linearGradient
       y2="57.673592"
       x2="244.16652"
       y1="412.40631"
       x1="244.16652"
       gradientTransform="matrix(4.3678005,0,0,0.15773184,-678.44346,248.8011)"
       gradientUnits="userSpaceOnUse"
       id="linearGradient7014"
       xlink:href="#linearGradient14579-3"
       inkscape:collect="always" />
  </defs>
  <sodipodi:namedview
     id="base"
     pagecolor="#ffffff"
     bordercolor="#666666"
     borderopacity="1.0"
     inkscape:pageopacity="0.0"
     inkscape:pageshadow="2"
     inkscape:zoom="0.7"
     inkscape:cx="-31.835726"
     inkscape:cy="93.351537"
     inkscape:document-units="px"
     inkscape:current-layer="layer1"
     showgrid="false"
     fit-margin-top="0"
     fit-margin-left="0"
     fit-margin-right="0"
     fit-margin-bottom="0"
     inkscape:window-width="646"
     inkscape:window-height="507"
     inkscape:window-x="21"
     inkscape:window-y="20"
     inkscape:window-maximized="0" />
  <metadata
     id="metadata7021">
    <rdf:RDF>
      <cc:Work
         rdf:about="">
        <dc:format>image/svg+xml</dc:format>
        <dc:type
           rdf:resource="http://purl.org/dc/dcmitype/StillImage" />
        <dc:title />
      </cc:Work>
    </rdf:RDF>
  </metadata>
  <g
     inkscape:label="Layer 1"
     inkscape:groupmode="layer"
     id="layer1"
     transform="translate(-355.40714,-256.65625)">
    <path
       inkscape:connector-curvature="0"
       id="path6857"
       d="m 384.03412,313.36903 0,-56.69812"
       style="fill:none;stroke:url(#linearGradient7014);stroke-width:2;stroke-linecap:butt;stroke-linejoin:miter;stroke-miterlimit:4;stroke-opacity:1;stroke-dasharray:none"
       sodipodi:nodetypes="cc" />
    <g
       transform="matrix(1.0199983,0,0,1,1018.3007,-1709.1089)"
       id="g6859">
      <path
         style="fill:none;stroke:#ffffff;stroke-width:1.98029673;stroke-linecap:butt;stroke-linejoin:miter;stroke-miterlimit:4;stroke-opacity:1;stroke-dasharray:none"
         d="m -622.03387,2018.1723 c -3.81238,-6.4326 -9.8446,-6.6582 -9.8446,-6.6582 0,0 0.0965,6.7147 9.16898,7.5612"
         id="path6861"
         inkscape:connector-curvature="0"
         sodipodi:nodetypes="ccc" />
      <path
         sodipodi:nodetypes="ccc"
         inkscape:connector-curvature="0"
         id="path6863"
         d="m -621.84618,2018.1723 c 3.81237,-6.4326 9.8446,-6.6582 9.8446,-6.6582 0,0 -0.0965,6.7147 -9.16899,7.5612"
         style="fill:none;stroke:#ffffff;stroke-width:1.98029673;stroke-linecap:butt;stroke-linejoin:miter;stroke-miterlimit:4;stroke-opacity:1;stroke-dasharray:none" />
    </g>
    <g
       id="g6840"
       transform="translate(923.07568,-1650.2774)">
      <path
         sodipodi:type="arc"
         style="color:#000000;fill:#00bdf1;fill-opacity:1;fill-rule:nonzero;stroke:none;stroke-width:1;marker:none;visibility:visible;display:inline;overflow:visible;enable-background:accumulate"
         id="path6821"
         sodipodi:cx="101.75"
         sodipodi:cy="180.25"
         sodipodi:rx="2.75"
         sodipodi:ry="2.75"
         d="m 104.5,180.25 c 0,1.51878 -1.23122,2.75 -2.75,2.75 -1.51878,0 -2.75,-1.23122 -2.75,-2.75 0,-1.51878 1.23122,-2.75 2.75,-2.75 1.51878,0 2.75,1.23122 2.75,2.75 z"
         transform="matrix(8.643065,-4.990076,4.990076,8.643065,-2319.1116,938.36891)" />
      <g
         transform="matrix(0.46004805,0,0,0.46004805,-690.54349,434.44165)"
         id="g7506">
        <g
           id="g6825">
          <path
             transform="matrix(3.7823101,-2.1839875,2.1837178,3.7827773,-426.85261,2930.2189)"
             d="m 104.5,180.25 c 0,1.51878 -1.23122,2.75 -2.75,2.75 -1.51878,0 -2.75,-1.23122 -2.75,-2.75 0,-1.51878 1.23122,-2.75 2.75,-2.75 1.51878,0 2.75,1.23122 2.75,2.75 z"
             sodipodi:ry="2.75"
             sodipodi:rx="2.75"
             sodipodi:cy="180.25"
             sodipodi:cx="101.75"
             id="path14393-9"
             style="color:#000000;fill:#00a8e8;fill-opacity:1;fill-rule:nonzero;stroke:none;stroke-width:1;marker:none;visibility:visible;display:inline;overflow:visible;enable-background:accumulate"
             sodipodi:type="arc" />
          <path
             sodipodi:type="arc"
             style="color:#000000;fill:#00a8e8;fill-opacity:1;fill-rule:nonzero;stroke:none;stroke-width:1;marker:none;visibility:visible;display:inline;overflow:visible;enable-background:accumulate"
             id="path14395-8"
             sodipodi:cx="101.75"
             sodipodi:cy="180.25"
             sodipodi:rx="2.75"
             sodipodi:ry="2.75"
             d="m 104.5,180.25 c 0,1.51878 -1.23122,2.75 -2.75,2.75 -1.51878,0 -2.75,-1.23122 -2.75,-2.75 0,-1.51878 1.23122,-2.75 2.75,-2.75 1.51878,0 2.75,1.23122 2.75,2.75 z"
             transform="matrix(2.4500166,-1.4146925,1.4145178,2.4503192,-168.88622,3103.1761)" />
          <path
             transform="matrix(2.1491761,-1.2409808,1.2408275,2.1494416,-131.4004,3091.2728)"
             d="m 104.5,180.25 c 0,1.51878 -1.23122,2.75 -2.75,2.75 -1.51878,0 -2.75,-1.23122 -2.75,-2.75 0,-1.51878 1.23122,-2.75 2.75,-2.75 1.51878,0 2.75,1.23122 2.75,2.75 z"
             sodipodi:ry="2.75"
             sodipodi:rx="2.75"
             sodipodi:cy="180.25"
             sodipodi:cx="101.75"
             id="path14397-1"
             style="color:#000000;fill:#00a8e8;fill-opacity:1;fill-rule:nonzero;stroke:none;stroke-width:1;marker:none;visibility:visible;display:inline;overflow:visible;enable-background:accumulate"
             sodipodi:type="arc" />
          <path
             sodipodi:type="arc"
             style="color:#000000;fill:#00a8e8;fill-opacity:1;fill-rule:nonzero;stroke:none;stroke-width:1;marker:none;visibility:visible;display:inline;overflow:visible;enable-background:accumulate"
             id="path14399-1"
             sodipodi:cx="101.75"
             sodipodi:cy="180.25"
             sodipodi:rx="2.75"
             sodipodi:ry="2.75"
             d="m 104.5,180.25 c 0,1.51878 -1.23122,2.75 -2.75,2.75 -1.51878,0 -2.75,-1.23122 -2.75,-2.75 0,-1.51878 1.23122,-2.75 2.75,-2.75 1.51878,0 2.75,1.23122 2.75,2.75 z"
             transform="matrix(1.3755863,-0.79429329,0.79419521,1.3757563,15.533389,3195.9272)" />
          <path
             transform="matrix(1.3755863,-0.79429329,0.79419521,1.3757563,54.874708,3225.3529)"
             d="m 104.5,180.25 c 0,1.51878 -1.23122,2.75 -2.75,2.75 -1.51878,0 -2.75,-1.23122 -2.75,-2.75 0,-1.51878 1.23122,-2.75 2.75,-2.75 1.51878,0 2.75,1.23122 2.75,2.75 z"
             sodipodi:ry="2.75"
             sodipodi:rx="2.75"
             sodipodi:cy="180.25"
             sodipodi:cx="101.75"
             id="path14401-1"
             style="color:#000000;fill:#00a8e8;fill-opacity:1;fill-rule:nonzero;stroke:none;stroke-width:1;marker:none;visibility:visible;display:inline;overflow:visible;enable-background:accumulate"
             sodipodi:type="arc" />
          <path
             sodipodi:type="arc"
             style="color:#000000;fill:#00a8e8;fill-opacity:1;fill-rule:nonzero;stroke:none;stroke-width:1;marker:none;visibility:visible;display:inline;overflow:visible;enable-background:accumulate"
             id="path14403-7"
             sodipodi:cx="101.75"
             sodipodi:cy="180.25"
             sodipodi:rx="2.75"
             sodipodi:ry="2.75"
             d="m 104.5,180.25 c 0,1.51878 -1.23122,2.75 -2.75,2.75 -1.51878,0 -2.75,-1.23122 -2.75,-2.75 0,-1.51878 1.23122,-2.75 2.75,-2.75 1.51878,0 2.75,1.23122 2.75,2.75 z"
             transform="matrix(1.3755863,-0.79429329,0.79419521,1.3757563,17.989,3235.2421)" />
          <path
             transform="matrix(2.9227659,-1.6876682,1.6874598,2.9231268,-272.87442,3017.1972)"
             d="m 104.5,180.25 c 0,1.51878 -1.23122,2.75 -2.75,2.75 -1.51878,0 -2.75,-1.23122 -2.75,-2.75 0,-1.51878 1.23122,-2.75 2.75,-2.75 1.51878,0 2.75,1.23122 2.75,2.75 z"
             sodipodi:ry="2.75"
             sodipodi:rx="2.75"
             sodipodi:cy="180.25"
             sodipodi:cx="101.75"
             id="path14405-8"
             style="color:#000000;fill:#00a8e8;fill-opacity:1;fill-rule:nonzero;stroke:none;stroke-width:1;marker:none;visibility:visible;display:inline;overflow:visible;enable-background:accumulate"
             sodipodi:type="arc" />
          <path
             sodipodi:type="arc"
             style="color:#000000;fill:#00a8e8;fill-opacity:1;fill-rule:nonzero;stroke:none;stroke-width:1;marker:none;visibility:visible;display:inline;overflow:visible;enable-background:accumulate"
             id="path14407-8"
             sodipodi:cx="101.75"
             sodipodi:cy="180.25"
             sodipodi:rx="2.75"
             sodipodi:ry="2.75"
             d="m 104.5,180.25 c 0,1.51878 -1.23122,2.75 -2.75,2.75 -1.51878,0 -2.75,-1.23122 -2.75,-2.75 0,-1.51878 1.23122,-2.75 2.75,-2.75 1.51878,0 2.75,1.23122 2.75,2.75 z"
             transform="matrix(2.0202445,-1.1665328,1.1663888,2.020494,-105.09246,3130.3749)" />
          <path
             transform="matrix(0.82857583,-0.47843757,0.47837849,0.82867815,172.43376,3273.7807)"
             d="m 104.5,180.25 c 0,1.51878 -1.23122,2.75 -2.75,2.75 -1.51878,0 -2.75,-1.23122 -2.75,-2.75 0,-1.51878 1.23122,-2.75 2.75,-2.75 1.51878,0 2.75,1.23122 2.75,2.75 z"
             sodipodi:ry="2.75"
             sodipodi:rx="2.75"
             sodipodi:cy="180.25"
             sodipodi:cx="101.75"
             id="path14409-6"
             style="color:#000000;fill:#00a8e8;fill-opacity:1;fill-rule:nonzero;stroke:none;stroke-width:1;marker:none;visibility:visible;display:inline;overflow:visible;enable-background:accumulate"
             sodipodi:type="arc" />
          <path
             sodipodi:type="arc"
             style="color:#000000;fill:#00a8e8;fill-opacity:1;fill-rule:nonzero;stroke:none;stroke-width:1;marker:none;visibility:visible;display:inline;overflow:visible;enable-background:accumulate"
             id="path14411-2"
             sodipodi:cx="101.75"
             sodipodi:cy="180.25"
             sodipodi:rx="2.75"
             sodipodi:ry="2.75"
             d="m 104.5,180.25 c 0,1.51878 -1.23122,2.75 -2.75,2.75 -1.51878,0 -2.75,-1.23122 -2.75,-2.75 0,-1.51878 1.23122,-2.75 2.75,-2.75 1.51878,0 2.75,1.23122 2.75,2.75 z"
             transform="matrix(0.82857583,-0.47843757,0.47837849,0.82867815,127.9662,3307.3152)" />
          <path
             transform="matrix(0.82857583,-0.47843757,0.47837849,0.82867815,121.98958,3302.4171)"
             d="m 104.5,180.25 c 0,1.51878 -1.23122,2.75 -2.75,2.75 -1.51878,0 -2.75,-1.23122 -2.75,-2.75 0,-1.51878 1.23122,-2.75 2.75,-2.75 1.51878,0 2.75,1.23122 2.75,2.75 z"
             sodipodi:ry="2.75"
             sodipodi:rx="2.75"
             sodipodi:cy="180.25"
             sodipodi:cx="101.75"
             id="path14413-1"
             style="color:#000000;fill:#00a8e8;fill-opacity:1;fill-rule:nonzero;stroke:none;stroke-width:1;marker:none;visibility:visible;display:inline;overflow:visible;enable-background:accumulate"
             sodipodi:type="arc" />
          <path
             sodipodi:type="arc"
             style="color:#000000;fill:#00a8e8;fill-opacity:1;fill-rule:nonzero;stroke:none;stroke-width:1;marker:none;visibility:visible;display:inline;overflow:visible;enable-background:accumulate"
             id="path14415-62"
             sodipodi:cx="101.75"
             sodipodi:cy="180.25"
             sodipodi:rx="2.75"
             sodipodi:ry="2.75"
             d="m 104.5,180.25 c 0,1.51878 -1.23122,2.75 -2.75,2.75 -1.51878,0 -2.75,-1.23122 -2.75,-2.75 0,-1.51878 1.23122,-2.75 2.75,-2.75 1.51878,0 2.75,1.23122 2.75,2.75 z"
             transform="matrix(0.82857583,-0.47843757,0.47837849,0.82867815,128.5453,3252.2944)" />
        </g>
      </g>
    </g>
  </g>
</svg>
