<?xml version="1.0" encoding="UTF-8" standalone="no"?>
<!-- Created with Inkscape (http://www.inkscape.org/) -->

<svg
   xmlns:dc="http://purl.org/dc/elements/1.1/"
   xmlns:cc="http://creativecommons.org/ns#"
   xmlns:rdf="http://www.w3.org/1999/02/22-rdf-syntax-ns#"
   xmlns:svg="http://www.w3.org/2000/svg"
   xmlns="http://www.w3.org/2000/svg"
   xmlns:xlink="http://www.w3.org/1999/xlink"
   xmlns:sodipodi="http://sodipodi.sourceforge.net/DTD/sodipodi-0.dtd"
   xmlns:inkscape="http://www.inkscape.org/namespaces/inkscape"
   width="234.99321"
   height="223.55063"
   id="svg6946"
   version="1.1"
   inkscape:version="0.48.2 r9819"
   sodipodi:docname="header-stars.svg">
  <defs
     id="defs6948" />
  <sodipodi:namedview
     id="base"
     pagecolor="#ffffff"
     bordercolor="#666666"
     borderopacity="1.0"
     inkscape:pageopacity="0.0"
     inkscape:pageshadow="2"
     inkscape:zoom="1"
     inkscape:cx="110.81175"
     inkscape:cy="49.172142"
     inkscape:document-units="px"
     inkscape:current-layer="layer1"
     showgrid="false"
     fit-margin-top="0"
     fit-margin-left="0"
     fit-margin-right="0"
     fit-margin-bottom="0"
     inkscape:window-width="649"
     inkscape:window-height="534"
     inkscape:window-x="664"
     inkscape:window-y="151"
     inkscape:window-maximized="0" />
  <metadata
     id="metadata6951">
    <rdf:RDF>
      <cc:Work
         rdf:about="">
        <dc:format>image/svg+xml</dc:format>
        <dc:type
           rdf:resource="http://purl.org/dc/dcmitype/StillImage" />
        <dc:title></dc:title>
      </cc:Work>
    </rdf:RDF>
  </metadata>
  <g
     inkscape:label="Layer 1"
     inkscape:groupmode="layer"
     id="layer1"
     transform="translate(-242.50337,-304.9738)">
    <g
       id="g7689"
       style="opacity:0.5">
      <path
         transform="matrix(1.0547905,0.28256981,-0.28270009,1.0548253,362.8799,166.8217)"
         d="m 104.5,180.25 c 0,1.51878 -1.23122,2.75 -2.75,2.75 -1.51878,0 -2.75,-1.23122 -2.75,-2.75 0,-1.51878 1.23122,-2.75 2.75,-2.75 1.51878,0 2.75,1.23122 2.75,2.75 z"
         sodipodi:ry="2.75"
         sodipodi:rx="2.75"
         sodipodi:cy="180.25"
         sodipodi:cx="101.75"
         id="path14275-8-6"
         style="color:#000000;fill:#ffffff;fill-opacity:1;fill-rule:nonzero;stroke:none;stroke-width:1;marker:none;visibility:visible;display:inline;overflow:visible;enable-background:accumulate"
         sodipodi:type="arc" />
      <path
         sodipodi:type="arc"
         style="color:#000000;fill:#ffffff;fill-opacity:1;fill-rule:nonzero;stroke:none;stroke-width:1;marker:none;visibility:visible;display:inline;overflow:visible;enable-background:accumulate"
         id="path14277-2-6"
         sodipodi:cx="101.75"
         sodipodi:cy="180.25"
         sodipodi:rx="2.75"
         sodipodi:ry="2.75"
         d="m 104.5,180.25 c 0,1.51878 -1.23122,2.75 -2.75,2.75 -1.51878,0 -2.75,-1.23122 -2.75,-2.75 0,-1.51878 1.23122,-2.75 2.75,-2.75 1.51878,0 2.75,1.23122 2.75,2.75 z"
         transform="matrix(1.0547905,0.28256981,-0.28270009,1.0548253,277.0124,136.0715)" />
      <path
         transform="matrix(0.64796343,0.17358413,-0.17366416,0.64798487,332.2921,272.3804)"
         d="m 104.5,180.25 c 0,1.51878 -1.23122,2.75 -2.75,2.75 -1.51878,0 -2.75,-1.23122 -2.75,-2.75 0,-1.51878 1.23122,-2.75 2.75,-2.75 1.51878,0 2.75,1.23122 2.75,2.75 z"
         sodipodi:ry="2.75"
         sodipodi:rx="2.75"
         sodipodi:cy="180.25"
         sodipodi:cx="101.75"
         id="path14279-9-7"
         style="color:#000000;fill:#ffffff;fill-opacity:1;fill-rule:nonzero;stroke:none;stroke-width:1;marker:none;visibility:visible;display:inline;overflow:visible;enable-background:accumulate"
         sodipodi:type="arc" />
      <path
         sodipodi:type="arc"
         style="color:#000000;fill:#ffffff;fill-opacity:1;fill-rule:nonzero;stroke:none;stroke-width:1;marker:none;visibility:visible;display:inline;overflow:visible;enable-background:accumulate"
         id="path14281-8-8"
         sodipodi:cx="101.75"
         sodipodi:cy="180.25"
         sodipodi:rx="2.75"
         sodipodi:ry="2.75"
         d="m 104.5,180.25 c 0,1.51878 -1.23122,2.75 -2.75,2.75 -1.51878,0 -2.75,-1.23122 -2.75,-2.75 0,-1.51878 1.23122,-2.75 2.75,-2.75 1.51878,0 2.75,1.23122 2.75,2.75 z"
         transform="matrix(0.64796343,0.17358413,-0.17366416,0.64798487,379.2696,233.0146)" />
      <path
         transform="matrix(0.64796343,0.17358413,-0.17366416,0.64798487,250.1046,235.7528)"
         d="m 104.5,180.25 c 0,1.51878 -1.23122,2.75 -2.75,2.75 -1.51878,0 -2.75,-1.23122 -2.75,-2.75 0,-1.51878 1.23122,-2.75 2.75,-2.75 1.51878,0 2.75,1.23122 2.75,2.75 z"
         sodipodi:ry="2.75"
         sodipodi:rx="2.75"
         sodipodi:cy="180.25"
         sodipodi:cx="101.75"
         id="path14283-2-4"
         style="color:#000000;fill:#ffffff;fill-opacity:1;fill-rule:nonzero;stroke:none;stroke-width:1;marker:none;visibility:visible;display:inline;overflow:visible;enable-background:accumulate"
         sodipodi:type="arc" />
      <path
         sodipodi:type="arc"
         style="color:#000000;fill:#ffffff;fill-opacity:1;fill-rule:nonzero;stroke:none;stroke-width:1;marker:none;visibility:visible;display:inline;overflow:visible;enable-background:accumulate"
         id="path14285-9-1"
         sodipodi:cx="101.75"
         sodipodi:cy="180.25"
         sodipodi:rx="2.75"
         sodipodi:ry="2.75"
         d="m 104.5,180.25 c 0,1.51878 -1.23122,2.75 -2.75,2.75 -1.51878,0 -2.75,-1.23122 -2.75,-2.75 0,-1.51878 1.23122,-2.75 2.75,-2.75 1.51878,0 2.75,1.23122 2.75,2.75 z"
         transform="matrix(0.64796343,0.17358413,-0.17366416,0.64798487,209.7213,253.8215)" />
      <path
         transform="matrix(0.64796343,0.17358413,-0.17366416,0.64798487,295.3959,250.52993)"
         d="m 104.5,180.25 c 0,1.51878 -1.23122,2.75 -2.75,2.75 -1.51878,0 -2.75,-1.23122 -2.75,-2.75 0,-1.51878 1.23122,-2.75 2.75,-2.75 1.51878,0 2.75,1.23122 2.75,2.75 z"
         sodipodi:ry="2.75"
         sodipodi:rx="2.75"
         sodipodi:cy="180.25"
         sodipodi:cx="101.75"
         id="path14287-8-7"
         style="color:#000000;fill:#ffffff;fill-opacity:1;fill-rule:nonzero;stroke:none;stroke-width:1;marker:none;visibility:visible;display:inline;overflow:visible;enable-background:accumulate"
         sodipodi:type="arc" />
      <path
         sodipodi:type="arc"
         style="color:#000000;fill:#ffffff;fill-opacity:1;fill-rule:nonzero;stroke:none;stroke-width:1;marker:none;visibility:visible;display:inline;overflow:visible;enable-background:accumulate"
         id="path14289-2-1"
         sodipodi:cx="101.75"
         sodipodi:cy="180.25"
         sodipodi:rx="2.75"
         sodipodi:ry="2.75"
         d="m 104.5,180.25 c 0,1.51878 -1.23122,2.75 -2.75,2.75 -1.51878,0 -2.75,-1.23122 -2.75,-2.75 0,-1.51878 1.23122,-2.75 2.75,-2.75 1.51878,0 2.75,1.23122 2.75,2.75 z"
         transform="matrix(0.64796343,0.17358413,-0.17366416,0.64798487,304.568,242.0477)" />
      <path
         sodipodi:type="arc"
         style="opacity:0.29999999999999999;color:#000000;fill:#ffffff;fill-opacity:1;fill-rule:nonzero;stroke:none;stroke-width:1;marker:none;visibility:visible;display:inline;overflow:visible;enable-background:accumulate"
         id="path14692-0-5"
         sodipodi:cx="101.75"
         sodipodi:cy="180.25"
         sodipodi:rx="2.75"
         sodipodi:ry="2.75"
         d="m 104.5,180.25 c 0,1.51878 -1.23122,2.75 -2.75,2.75 -1.51878,0 -2.75,-1.23122 -2.75,-2.75 0,-1.51878 1.23122,-2.75 2.75,-2.75 1.51878,0 2.75,1.23122 2.75,2.75 z"
         transform="matrix(0.64796343,0.17358413,-0.17366416,0.64798487,281.5696,183.8024)" />
      <use
         transform="translate(-7.206752,11.183585)"
         height="960"
         width="640"
         y="0"
         x="0"
         xlink:href="#path14692-0-5"
         id="use14754-6-5" />
      <use
         transform="translate(-46.368752,-11.44481)"
         height="960"
         width="640"
         y="0"
         x="0"
         xlink:href="#path14692-0-5"
         id="use14756-1-8" />
      <use
         transform="translate(-50.954752,32.780885)"
         height="960"
         width="640"
         y="0"
         x="0"
         xlink:href="#path14692-0-5"
         id="use14758-3-2" />
      <path
         transform="matrix(0.64796343,0.17358413,-0.17366416,0.64798487,350.4605,185.3275)"
         d="m 104.5,180.25 c 0,1.51878 -1.23122,2.75 -2.75,2.75 -1.51878,0 -2.75,-1.23122 -2.75,-2.75 0,-1.51878 1.23122,-2.75 2.75,-2.75 1.51878,0 2.75,1.23122 2.75,2.75 z"
         sodipodi:ry="2.75"
         sodipodi:rx="2.75"
         sodipodi:cy="180.25"
         sodipodi:cx="101.75"
         id="path6276"
         style="opacity:0.29999999999999999;color:#000000;fill:#ffffff;fill-opacity:1;fill-rule:nonzero;stroke:none;stroke-width:1;marker:none;visibility:visible;display:inline;overflow:visible;enable-background:accumulate"
         sodipodi:type="arc" />
      <path
         sodipodi:type="arc"
         style="opacity:0.29999999999999999;color:#000000;fill:#ffffff;fill-opacity:1;fill-rule:nonzero;stroke:none;stroke-width:1;marker:none;visibility:visible;display:inline;overflow:visible;enable-background:accumulate"
         id="path6278"
         sodipodi:cx="101.75"
         sodipodi:cy="180.25"
         sodipodi:rx="2.75"
         sodipodi:ry="2.75"
         d="m 104.5,180.25 c 0,1.51878 -1.23122,2.75 -2.75,2.75 -1.51878,0 -2.75,-1.23122 -2.75,-2.75 0,-1.51878 1.23122,-2.75 2.75,-2.75 1.51878,0 2.75,1.23122 2.75,2.75 z"
         transform="matrix(0.64796343,0.17358413,-0.17366416,0.64798487,349.1468,218.1369)" />
      <path
         transform="matrix(0.64796343,0.17358413,-0.17366416,0.64798487,359.8539,244.3605)"
         d="m 104.5,180.25 c 0,1.51878 -1.23122,2.75 -2.75,2.75 -1.51878,0 -2.75,-1.23122 -2.75,-2.75 0,-1.51878 1.23122,-2.75 2.75,-2.75 1.51878,0 2.75,1.23122 2.75,2.75 z"
         sodipodi:ry="2.75"
         sodipodi:rx="2.75"
         sodipodi:cy="180.25"
         sodipodi:cx="101.75"
         id="path6280"
         style="opacity:0.29999999999999999;color:#000000;fill:#ffffff;fill-opacity:1;fill-rule:nonzero;stroke:none;stroke-width:1;marker:none;visibility:visible;display:inline;overflow:visible;enable-background:accumulate"
         sodipodi:type="arc" />
      <use
         id="use6282"
         xlink:href="#path14692-0-5"
         x="0"
         y="0"
         width="640"
         height="960"
         transform="translate(-71.456752,16.683585)" />
      <use
         transform="translate(105.04325,25.683585)"
         height="960"
         width="640"
         y="0"
         x="0"
         xlink:href="#path14692-0-5"
         id="use6286" />
      <path
         transform="matrix(0.64796343,0.17358413,-0.17366416,0.64798487,410.1305,245.8215)"
         d="m 104.5,180.25 c 0,1.51878 -1.23122,2.75 -2.75,2.75 -1.51878,0 -2.75,-1.23122 -2.75,-2.75 0,-1.51878 1.23122,-2.75 2.75,-2.75 1.51878,0 2.75,1.23122 2.75,2.75 z"
         sodipodi:ry="2.75"
         sodipodi:rx="2.75"
         sodipodi:cy="180.25"
         sodipodi:cx="101.75"
         id="path6336"
         style="color:#000000;fill:#ffffff;fill-opacity:1;fill-rule:nonzero;stroke:none;stroke-width:1;marker:none;visibility:visible;display:inline;overflow:visible;enable-background:accumulate"
         sodipodi:type="arc" />
      <use
         id="use6348"
         xlink:href="#path14692-0-5"
         x="0"
         y="0"
         width="640"
         height="960"
         transform="translate(159.45441,32.780885)" />
      <use
         transform="translate(128.95241,12.683585)"
         height="960"
         width="640"
         y="0"
         x="0"
         xlink:href="#path14692-0-5"
         id="use6357" />
      <path
         transform="matrix(0.64796343,-0.17358413,-0.17366416,-0.64798487,305.0696,549.4529)"
         d="m 104.5,180.25 c 0,1.51878 -1.23122,2.75 -2.75,2.75 -1.51878,0 -2.75,-1.23122 -2.75,-2.75 0,-1.51878 1.23122,-2.75 2.75,-2.75 1.51878,0 2.75,1.23122 2.75,2.75 z"
         sodipodi:ry="2.75"
         sodipodi:rx="2.75"
         sodipodi:cy="180.25"
         sodipodi:cx="101.75"
         id="path6399"
         style="opacity:0.29999999999999999;color:#000000;fill:#ffffff;fill-opacity:1;fill-rule:nonzero;stroke:none;stroke-width:1;marker:none;visibility:visible;display:inline;overflow:visible;enable-background:accumulate"
         sodipodi:type="arc" />
      <use
         id="use6401"
         xlink:href="#path14692-0-5"
         x="0"
         y="0"
         width="640"
         height="960"
         transform="matrix(1,0,0,-1,6.293248,726.0718)" />
      <use
         id="use6403"
         xlink:href="#path14692-0-5"
         x="0"
         y="0"
         width="640"
         height="960"
         transform="matrix(1,0,0,-1,-32.368752,748.7002)" />
      <path
         sodipodi:type="arc"
         style="opacity:0.29999999999999999;color:#000000;fill:#ffffff;fill-opacity:1;fill-rule:nonzero;stroke:none;stroke-width:1;marker:none;visibility:visible;display:inline;overflow:visible;enable-background:accumulate"
         id="path6405"
         sodipodi:cx="101.75"
         sodipodi:cy="180.25"
         sodipodi:rx="2.75"
         sodipodi:ry="2.75"
         d="m 104.5,180.25 c 0,1.51878 -1.23122,2.75 -2.75,2.75 -1.51878,0 -2.75,-1.23122 -2.75,-2.75 0,-1.51878 1.23122,-2.75 2.75,-2.75 1.51878,0 2.75,1.23122 2.75,2.75 z"
         transform="matrix(0.64796343,-0.17358413,-0.17366416,-0.64798487,383.9605,551.9278)" />
      <use
         transform="matrix(1,0,0,-1,-36.956752,711.5718)"
         height="960"
         width="640"
         y="0"
         x="0"
         xlink:href="#path14692-0-5"
         id="use6407" />
      <use
         id="use6409"
         xlink:href="#path14692-0-5"
         x="0"
         y="0"
         width="640"
         height="960"
         transform="matrix(1,0,0,-1,152.45241,721.5718)" />
      <path
         transform="matrix(0.64796343,-0.17358413,-0.17366416,-0.64798487,353.3738,583.7954)"
         d="m 104.5,180.25 c 0,1.51878 -1.23122,2.75 -2.75,2.75 -1.51878,0 -2.75,-1.23122 -2.75,-2.75 0,-1.51878 1.23122,-2.75 2.75,-2.75 1.51878,0 2.75,1.23122 2.75,2.75 z"
         sodipodi:ry="2.75"
         sodipodi:rx="2.75"
         sodipodi:cy="180.25"
         sodipodi:cx="101.75"
         id="path6399-7"
         style="opacity:0.29999999999999999;color:#000000;fill:#ffffff;fill-opacity:1;fill-rule:nonzero;stroke:none;stroke-width:1;marker:none;visibility:visible;display:inline;overflow:visible;enable-background:accumulate"
         sodipodi:type="arc" />
      <path
         transform="matrix(0.64796343,0.17358413,-0.17366416,0.64798487,270.9473,287.2952)"
         d="m 104.5,180.25 c 0,1.51878 -1.23122,2.75 -2.75,2.75 -1.51878,0 -2.75,-1.23122 -2.75,-2.75 0,-1.51878 1.23122,-2.75 2.75,-2.75 1.51878,0 2.75,1.23122 2.75,2.75 z"
         sodipodi:ry="2.75"
         sodipodi:rx="2.75"
         sodipodi:cy="180.25"
         sodipodi:cx="101.75"
         id="path14279-9-7-1"
         style="color:#000000;fill:#ffffff;fill-opacity:1;fill-rule:nonzero;stroke:none;stroke-width:1;marker:none;visibility:visible;display:inline;overflow:visible;enable-background:accumulate"
         sodipodi:type="arc" />
      <path
         transform="matrix(0.64796343,0.17358413,-0.17366416,0.64798487,334.8885,305.3265)"
         d="m 104.5,180.25 c 0,1.51878 -1.23122,2.75 -2.75,2.75 -1.51878,0 -2.75,-1.23122 -2.75,-2.75 0,-1.51878 1.23122,-2.75 2.75,-2.75 1.51878,0 2.75,1.23122 2.75,2.75 z"
         sodipodi:ry="2.75"
         sodipodi:rx="2.75"
         sodipodi:cy="180.25"
         sodipodi:cx="101.75"
         id="path14279-9-7-1-5"
         style="color:#000000;fill:#ffffff;fill-opacity:1;fill-rule:nonzero;stroke:none;stroke-width:1;marker:none;visibility:visible;display:inline;overflow:visible;enable-background:accumulate"
         sodipodi:type="arc" />
      <path
         sodipodi:type="arc"
         style="opacity:0.29999999999999999;color:#000000;fill:#ffffff;fill-opacity:1;fill-rule:nonzero;stroke:none;stroke-width:1;marker:none;visibility:visible;display:inline;overflow:visible;enable-background:accumulate"
         id="path6405-2"
         sodipodi:cx="101.75"
         sodipodi:cy="180.25"
         sodipodi:rx="2.75"
         sodipodi:ry="2.75"
         d="m 104.5,180.25 c 0,1.51878 -1.23122,2.75 -2.75,2.75 -1.51878,0 -2.75,-1.23122 -2.75,-2.75 0,-1.51878 1.23122,-2.75 2.75,-2.75 1.51878,0 2.75,1.23122 2.75,2.75 z"
         transform="matrix(0.64796343,-0.17358413,-0.17366416,-0.64798487,292.6147,575.6637)" />
      <path
         sodipodi:type="arc"
         style="opacity:0.29999999999999999;color:#000000;fill:#ffffff;fill-opacity:1;fill-rule:nonzero;stroke:none;stroke-width:1;marker:none;visibility:visible;display:inline;overflow:visible;enable-background:accumulate"
         id="path6405-2-1"
         sodipodi:cx="101.75"
         sodipodi:cy="180.25"
         sodipodi:rx="2.75"
         sodipodi:ry="2.75"
         d="m 104.5,180.25 c 0,1.51878 -1.23122,2.75 -2.75,2.75 -1.51878,0 -2.75,-1.23122 -2.75,-2.75 0,-1.51878 1.23122,-2.75 2.75,-2.75 1.51878,0 2.75,1.23122 2.75,2.75 z"
         transform="matrix(0.64796343,-0.17358413,-0.17366416,-0.64798487,409.5367,546.6723)" />
      <use
         transform="translate(159.45441,108.79486)"
         height="960"
         width="640"
         y="0"
         x="0"
         xlink:href="#path14692-0-5"
         id="use6869" />
      <use
         transform="translate(-71.456752,119.56762)"
         height="960"
         width="640"
         y="0"
         x="0"
         xlink:href="#path14692-0-5"
         id="use6871" />
      <use
         id="use6873"
         xlink:href="#path14692-0-5"
         x="0"
         y="0"
         width="640"
         height="960"
         transform="translate(-65.446344,94.111776)" />
      <path
         transform="matrix(0.64796343,-0.17358413,-0.17366416,-0.64798487,235.1147,613.6637)"
         d="m 104.5,180.25 c 0,1.51878 -1.23122,2.75 -2.75,2.75 -1.51878,0 -2.75,-1.23122 -2.75,-2.75 0,-1.51878 1.23122,-2.75 2.75,-2.75 1.51878,0 2.75,1.23122 2.75,2.75 z"
         sodipodi:ry="2.75"
         sodipodi:rx="2.75"
         sodipodi:cy="180.25"
         sodipodi:cx="101.75"
         id="path7131"
         style="opacity:0.29999999999999999;color:#000000;fill:#ffffff;fill-opacity:1;fill-rule:nonzero;stroke:none;stroke-width:1;marker:none;visibility:visible;display:inline;overflow:visible;enable-background:accumulate"
         sodipodi:type="arc" />
      <path
         sodipodi:type="arc"
         style="opacity:0.29999999999999999;color:#000000;fill:#ffffff;fill-opacity:1;fill-rule:nonzero;stroke:none;stroke-width:1;marker:none;visibility:visible;display:inline;overflow:visible;enable-background:accumulate"
         id="path7133"
         sodipodi:cx="101.75"
         sodipodi:cy="180.25"
         sodipodi:rx="2.75"
         sodipodi:ry="2.75"
         d="m 104.5,180.25 c 0,1.51878 -1.23122,2.75 -2.75,2.75 -1.51878,0 -2.75,-1.23122 -2.75,-2.75 0,-1.51878 1.23122,-2.75 2.75,-2.75 1.51878,0 2.75,1.23122 2.75,2.75 z"
         transform="matrix(0.64796343,-0.17358413,-0.17366416,-0.64798487,313.6147,601.1637)" />
      <path
         transform="matrix(0.64796343,-0.17358413,-0.17366416,-0.64798487,432.1147,574.6637)"
         d="m 104.5,180.25 c 0,1.51878 -1.23122,2.75 -2.75,2.75 -1.51878,0 -2.75,-1.23122 -2.75,-2.75 0,-1.51878 1.23122,-2.75 2.75,-2.75 1.51878,0 2.75,1.23122 2.75,2.75 z"
         sodipodi:ry="2.75"
         sodipodi:rx="2.75"
         sodipodi:cy="180.25"
         sodipodi:cx="101.75"
         id="path7135"
         style="opacity:0.29999999999999999;color:#000000;fill:#ffffff;fill-opacity:1;fill-rule:nonzero;stroke:none;stroke-width:1;marker:none;visibility:visible;display:inline;overflow:visible;enable-background:accumulate"
         sodipodi:type="arc" />
      <path
         sodipodi:type="arc"
         style="opacity:0.29999999999999999;color:#000000;fill:#ffffff;fill-opacity:1;fill-rule:nonzero;stroke:none;stroke-width:1;marker:none;visibility:visible;display:inline;overflow:visible;enable-background:accumulate"
         id="path7137"
         sodipodi:cx="101.75"
         sodipodi:cy="180.25"
         sodipodi:rx="2.75"
         sodipodi:ry="2.75"
         d="m 104.5,180.25 c 0,1.51878 -1.23122,2.75 -2.75,2.75 -1.51878,0 -2.75,-1.23122 -2.75,-2.75 0,-1.51878 1.23122,-2.75 2.75,-2.75 1.51878,0 2.75,1.23122 2.75,2.75 z"
         transform="matrix(0.64796343,-0.17358413,-0.17366416,-0.64798487,392.6147,626.6637)" />
      <path
         sodipodi:type="arc"
         style="color:#000000;fill:#ffffff;fill-opacity:1;fill-rule:nonzero;stroke:none;stroke-width:1;marker:none;visibility:visible;display:inline;overflow:visible;enable-background:accumulate"
         id="path7139"
         sodipodi:cx="101.75"
         sodipodi:cy="180.25"
         sodipodi:rx="2.75"
         sodipodi:ry="2.75"
         d="m 104.5,180.25 c 0,1.51878 -1.23122,2.75 -2.75,2.75 -1.51878,0 -2.75,-1.23122 -2.75,-2.75 0,-1.51878 1.23122,-2.75 2.75,-2.75 1.51878,0 2.75,1.23122 2.75,2.75 z"
         transform="matrix(0.64796343,0.17358413,-0.17366416,0.64798487,379.8885,350.8265)" />
      <use
         id="use6401-5"
         xlink:href="#path14692-0-5"
         x="0"
         y="0"
         width="640"
         height="960"
         transform="matrix(1,0,0,-1,20.351655,709.69252)" />
      <path
         transform="matrix(0.64796343,-0.17358413,-0.17366416,-0.64798487,215.37605,640.64064)"
         d="m 104.5,180.25 c 0,1.51878 -1.23122,2.75 -2.75,2.75 -1.51878,0 -2.75,-1.23122 -2.75,-2.75 0,-1.51878 1.23122,-2.75 2.75,-2.75 1.51878,0 2.75,1.23122 2.75,2.75 z"
         sodipodi:ry="2.75"
         sodipodi:rx="2.75"
         sodipodi:cy="180.25"
         sodipodi:cx="101.75"
         id="path7131-3"
         style="opacity:0.29999999999999999;color:#000000;fill:#ffffff;fill-opacity:1;fill-rule:nonzero;stroke:none;stroke-width:1;marker:none;visibility:visible;display:inline;overflow:visible;enable-background:accumulate"
         sodipodi:type="arc" />
      <path
         sodipodi:type="arc"
         style="opacity:0.29999999999999999;color:#000000;fill:#ffffff;fill-opacity:1;fill-rule:nonzero;stroke:none;stroke-width:1;marker:none;visibility:visible;display:inline;overflow:visible;enable-background:accumulate"
         id="path7177"
         sodipodi:cx="101.75"
         sodipodi:cy="180.25"
         sodipodi:rx="2.75"
         sodipodi:ry="2.75"
         d="m 104.5,180.25 c 0,1.51878 -1.23122,2.75 -2.75,2.75 -1.51878,0 -2.75,-1.23122 -2.75,-2.75 0,-1.51878 1.23122,-2.75 2.75,-2.75 1.51878,0 2.75,1.23122 2.75,2.75 z"
         transform="matrix(0.64796343,-0.17358413,-0.17366416,-0.64798487,307.87605,661.14064)" />
      <path
         transform="matrix(0.64796343,-0.17358413,-0.17366416,-0.64798487,364.35734,633.32576)"
         d="m 104.5,180.25 c 0,1.51878 -1.23122,2.75 -2.75,2.75 -1.51878,0 -2.75,-1.23122 -2.75,-2.75 0,-1.51878 1.23122,-2.75 2.75,-2.75 1.51878,0 2.75,1.23122 2.75,2.75 z"
         sodipodi:ry="2.75"
         sodipodi:rx="2.75"
         sodipodi:cy="180.25"
         sodipodi:cx="101.75"
         id="path7179"
         style="opacity:0.29999999999999999;color:#000000;fill:#ffffff;fill-opacity:1;fill-rule:nonzero;stroke:none;stroke-width:1;marker:none;visibility:visible;display:inline;overflow:visible;enable-background:accumulate"
         sodipodi:type="arc" />
    </g>
  </g>
</svg>
