<?xml version="1.0" encoding="UTF-8" standalone="no"?>
<!-- Created with Inkscape (http://www.inkscape.org/) -->

<svg
   xmlns:dc="http://purl.org/dc/elements/1.1/"
   xmlns:cc="http://creativecommons.org/ns#"
   xmlns:rdf="http://www.w3.org/1999/02/22-rdf-syntax-ns#"
   xmlns:svg="http://www.w3.org/2000/svg"
   xmlns="http://www.w3.org/2000/svg"
   xmlns:sodipodi="http://sodipodi.sourceforge.net/DTD/sodipodi-0.dtd"
   xmlns:inkscape="http://www.inkscape.org/namespaces/inkscape"
   width="16px"
   height="16px"
   id="svg3544"
   version="1.1"
   inkscape:version="0.48.2 r9819"
   sodipodi:docname="icon-outsiders.svg"
   inkscape:export-filename="/Users/hbons/Desktop/outsidersmotorcycles.com/img/assets/favicon.png"
   inkscape:export-xdpi="90"
   inkscape:export-ydpi="90">
  <defs
     id="defs3546" />
  <sodipodi:namedview
     id="base"
     pagecolor="#ffffff"
     bordercolor="#666666"
     borderopacity="1.0"
     inkscape:pageopacity="0.0"
     inkscape:pageshadow="2"
     inkscape:zoom="22.627417"
     inkscape:cx="12.400981"
     inkscape:cy="4.3425244"
     inkscape:current-layer="layer1"
     showgrid="true"
     inkscape:grid-bbox="true"
     inkscape:document-units="px"
     inkscape:snap-global="true"
     inkscape:snap-nodes="false"
     inkscape:snap-bbox="true"
     inkscape:showpageshadow="false"
     inkscape:window-width="1366"
     inkscape:window-height="724"
     inkscape:window-x="22"
     inkscape:window-y="22"
     inkscape:window-maximized="0">
    <inkscape:grid
       type="xygrid"
       id="grid4345"
       empspacing="5"
       visible="true"
       enabled="true"
       snapvisiblegridlinesonly="true" />
  </sodipodi:namedview>
  <metadata
     id="metadata3549">
    <rdf:RDF>
      <cc:Work
         rdf:about="">
        <dc:format>image/svg+xml</dc:format>
        <dc:type
           rdf:resource="http://purl.org/dc/dcmitype/StillImage" />
        <dc:title></dc:title>
      </cc:Work>
    </rdf:RDF>
  </metadata>
  <g
     id="layer1"
     inkscape:label="Layer 1"
     inkscape:groupmode="layer">
    <path
       sodipodi:nodetypes="cccccsscsccssccsccc"
       inkscape:connector-curvature="0"
       id="path5100"
       d="m 14.870649,6.7081002 c 0,-1.9729499 0.204517,-4.0029958 -2.66995,-4.0029958 -2.2083957,0 -3.9974941,1.6259516 -3.9974941,5.314611 0,1.1033139 0.4301412,1.2363419 1.3130731,1.2363419 1.557674,0 2.655688,-0.8906117 2.655688,-1.7250955 0,-0.4653314 -0.249782,-0.8347588 -0.656941,-0.8347588 -0.777116,0 -0.671901,-0.6707139 -0.67644,-1.3166803 -0.0048,-0.6828602 0.699007,-1.4010894 1.376559,-1.4010894 0.56857,0 1.336785,0.1563027 1.397826,1.3973799 0.07729,1.5715966 -0.296421,2.8593384 -1.215783,4.5090145 C 11.414627,11.10685 10.397472,12.210495 9.2140739,12.828226 7.7737308,13.580028 6.3322806,13.523542 5.7141795,12.626597 4.8373939,11.354021 5.5616493,7.356795 7.2488171,4.7944818 9.1744447,1.8700182 10.557765,0.91054977 13.602827,1.3077531 14.595525,1.4613257 14.525722,0.7188126 13.877812,0.45720236 12.191516,-0.29203227 9.9854172,-0.13767881 7.9628796,1.0481422 4.2982009,3.196626 0.89266292,8.3594272 0.89266292,12.044585 0.89266292,15.180528 2.5206643,16 5.2852076,16 8.9972486,16 14.870649,11.775344 14.870649,6.7081002 z"
       style="fill:#ffffff;fill-opacity:1" />
  </g>
</svg>
