<?xml version="1.0" encoding="UTF-8" standalone="no"?>
<!-- Created with Inkscape (http://www.inkscape.org/) -->

<svg
   xmlns:dc="http://purl.org/dc/elements/1.1/"
   xmlns:cc="http://creativecommons.org/ns#"
   xmlns:rdf="http://www.w3.org/1999/02/22-rdf-syntax-ns#"
   xmlns:svg="http://www.w3.org/2000/svg"
   xmlns="http://www.w3.org/2000/svg"
   xmlns:sodipodi="http://sodipodi.sourceforge.net/DTD/sodipodi-0.dtd"
   xmlns:inkscape="http://www.inkscape.org/namespaces/inkscape"
   width="16px"
   height="16px"
   id="svg5197"
   version="1.1"
   inkscape:version="0.48.2 r9819"
   sodipodi:docname="icon-github.svg">
  <defs
     id="defs5199" />
  <sodipodi:namedview
     id="base"
     pagecolor="#ffffff"
     bordercolor="#666666"
     borderopacity="1.0"
     inkscape:pageopacity="0.0"
     inkscape:pageshadow="2"
     inkscape:zoom="8"
     inkscape:cx="7.6550872"
     inkscape:cy="7.383776"
     inkscape:current-layer="layer1"
     showgrid="false"
     inkscape:grid-bbox="true"
     inkscape:document-units="px"
     inkscape:window-width="1028"
     inkscape:window-height="724"
     inkscape:window-x="16"
     inkscape:window-y="20"
     inkscape:window-maximized="0"
     inkscape:snap-nodes="true"
     inkscape:snap-bbox="false">
    <inkscape:grid
       type="xygrid"
       id="grid5214" />
  </sodipodi:namedview>
  <metadata
     id="metadata5202">
    <rdf:RDF>
      <cc:Work
         rdf:about="">
        <dc:format>image/svg+xml</dc:format>
        <dc:type
           rdf:resource="http://purl.org/dc/dcmitype/StillImage" />
        <dc:title></dc:title>
      </cc:Work>
    </rdf:RDF>
  </metadata>
  <g
     id="layer1"
     inkscape:label="Layer 1"
     inkscape:groupmode="layer">
    <path
       style="color:#000000;fill:#ffffff;fill-opacity:1;fill-rule:nonzero;stroke:none;stroke-width:2;marker:none;visibility:visible;display:inline;overflow:visible;enable-background:accumulate;opacity:1"
       d="M 5 3 C 2.23 3 0 5.23 0 8 L 0 10 C 0 12.77 2.23 15 5 15 L 11 15 C 13.77 15 16 12.77 16 10 L 16 8 C 16 5.23 13.77 3 11 3 L 5 3 z M 5 8 L 11 8 C 12.662 8 14 9.3380001 14 11 C 14 12.662 12.662 14 11 14 L 5 14 C 3.3380001 14 2 12.662 2 11 C 2 9.3380001 3.3380001 8 5 8 z "
       id="rect6438" />
    <path
       style="opacity:1;color:#000000;fill:#ffffff;fill-opacity:1;fill-rule:nonzero;stroke:none;stroke-width:2;marker:none;visibility:visible;display:inline;overflow:visible;enable-background:accumulate"
       d="M 2,1 C 4,1 6,3 6,3 L 1,5 C 1,1 2,1 2,1 z"
       id="rect5604"
       inkscape:connector-curvature="0"
       sodipodi:nodetypes="cccc" />
    <rect
       y="9"
       x="4"
       height="3"
       width="1.9999998"
       id="rect6398"
       style="opacity:1;color:#000000;fill:#ffffff;fill-opacity:1;fill-rule:nonzero;stroke:none;stroke-width:2;marker:none;visibility:visible;display:inline;overflow:visible;enable-background:accumulate"
       rx="0.99999988"
       ry="0.99999988" />
    <path
       sodipodi:nodetypes="cccc"
       inkscape:connector-curvature="0"
       id="path6432"
       d="m 14,1 c -2,0 -4,2 -4,2 l 5,2 C 15,1 14,1 14,1 z"
       style="opacity:1;color:#000000;fill:#ffffff;fill-opacity:1;fill-rule:nonzero;stroke:none;stroke-width:2;marker:none;visibility:visible;display:inline;overflow:visible;enable-background:accumulate" />
    <rect
       ry="0.99999988"
       rx="0.99999988"
       style="opacity:1;color:#000000;fill:#ffffff;fill-opacity:1;fill-rule:nonzero;stroke:none;stroke-width:2;marker:none;visibility:visible;display:inline;overflow:visible;enable-background:accumulate"
       id="rect6436"
       width="1.9999998"
       height="3"
       x="10"
       y="9" />
  </g>
</svg>
