<?xml version="1.0" encoding="UTF-8" standalone="no"?>
<!-- Created with Inkscape (http://www.inkscape.org/) -->

<svg
   xmlns:dc="http://purl.org/dc/elements/1.1/"
   xmlns:cc="http://creativecommons.org/ns#"
   xmlns:rdf="http://www.w3.org/1999/02/22-rdf-syntax-ns#"
   xmlns:svg="http://www.w3.org/2000/svg"
   xmlns="http://www.w3.org/2000/svg"
   xmlns:sodipodi="http://sodipodi.sourceforge.net/DTD/sodipodi-0.dtd"
   xmlns:inkscape="http://www.inkscape.org/namespaces/inkscape"
   width="16px"
   height="16px"
   id="svg5197"
   version="1.1"
   inkscape:version="0.48.2 r9819"
   sodipodi:docname="icon-gnome.svg">
  <defs
     id="defs5199" />
  <sodipodi:namedview
     id="base"
     pagecolor="#ffffff"
     bordercolor="#666666"
     borderopacity="1.0"
     inkscape:pageopacity="0.0"
     inkscape:pageshadow="2"
     inkscape:zoom="22.627417"
     inkscape:cx="5.8588547"
     inkscape:cy="8.2534522"
     inkscape:current-layer="layer1-3"
     showgrid="true"
     inkscape:grid-bbox="true"
     inkscape:document-units="px"
     inkscape:window-width="1028"
     inkscape:window-height="724"
     inkscape:window-x="16"
     inkscape:window-y="20"
     inkscape:window-maximized="0"
     inkscape:snap-nodes="false"
     inkscape:snap-bbox="true"
     showguides="true"
     inkscape:guide-bbox="true">
    <inkscape:grid
       type="xygrid"
       id="grid5214" />
  </sodipodi:namedview>
  <metadata
     id="metadata5202">
    <rdf:RDF>
      <cc:Work
         rdf:about="">
        <dc:format>image/svg+xml</dc:format>
        <dc:type
           rdf:resource="http://purl.org/dc/dcmitype/StillImage" />
        <dc:title></dc:title>
      </cc:Work>
    </rdf:RDF>
  </metadata>
  <g
     id="layer1"
     inkscape:label="Layer 1"
     inkscape:groupmode="layer">
    <g
       id="layer1-3"
       transform="translate(-376.59265,-480.99831)">
      <g
         id="g3963"
         transform="translate(925.8326,120.8762)"
         style="fill:#ffffff;fill-opacity:1">
        <g
           id="g3771"
           style="fill:#ffffff;fill-opacity:1;fill-rule:nonzero;stroke:none"
           transform="matrix(0.13529511,0,0,0.13529511,-547.25704,360.12211)">
          <g
             id="g3773"
             style="fill:#ffffff;fill-opacity:1">
            <path
               id="path3775"
               style="fill:#ffffff;fill-opacity:1"
               d="M 86.068,0 C 61.466,0 56.851,35.041 70.691,35.041 84.529,35.041 110.671,0 86.068,0 z"
               inkscape:connector-curvature="0" />
            <path
               id="path3777"
               style="fill:#ffffff;fill-opacity:1"
               d="M 45.217,30.699 C 52.586,31.149 60.671,2.577 46.821,4.374 32.976,6.171 37.845,30.249 45.217,30.699 z"
               inkscape:connector-curvature="0" />
            <path
               id="path3779"
               style="fill:#ffffff;fill-opacity:1"
               d="M 11.445,48.453 C 16.686,46.146 12.12,23.581 3.208,29.735 -5.7,35.89 6.204,50.759 11.445,48.453 z"
               inkscape:connector-curvature="0" />
            <path
               id="path3781"
               style="fill:#ffffff;fill-opacity:1"
               d="M 26.212,36.642 C 32.451,35.37 32.793,9.778 21.667,14.369 10.539,18.961 19.978,37.916 26.212,36.642 l 0,0 z"
               inkscape:connector-curvature="0" />
            <path
               id="path3783"
               style="fill:#ffffff;fill-opacity:1"
               d="M 58.791,95.709576 C 59.898,104.16358 48.662398,106.542 41.504398,101.092 18.717398,83.743 83.16,79.334453 79.171,55.632453 75.86,35.958453 14.917559,42.015453 8.0435586,72.799453 3.3905586,93.620453 27.774,118.26 52.614,118.26 c 12.22,0 26.315,-9.23742 28.952,-23.215424 2.014,-10.659 -23.699,-6.388 -22.775,0.665 z"
               inkscape:connector-curvature="0"
               sodipodi:nodetypes="ccscscc" />
          </g>
        </g>
      </g>
    </g>
  </g>
</svg>
