<?xml version="1.0" encoding="UTF-8" standalone="no"?>
<!-- Created with Inkscape (http://www.inkscape.org/) -->

<svg
   xmlns:dc="http://purl.org/dc/elements/1.1/"
   xmlns:cc="http://creativecommons.org/ns#"
   xmlns:rdf="http://www.w3.org/1999/02/22-rdf-syntax-ns#"
   xmlns:svg="http://www.w3.org/2000/svg"
   xmlns="http://www.w3.org/2000/svg"
   xmlns:sodipodi="http://sodipodi.sourceforge.net/DTD/sodipodi-0.dtd"
   xmlns:inkscape="http://www.inkscape.org/namespaces/inkscape"
   width="16px"
   height="16px"
   id="svg3544"
   version="1.1"
   inkscape:version="0.48.2 r9819"
   sodipodi:docname="icon-yocto.svg"
   inkscape:export-filename="/Users/hbons/Desktop/outsidersmotorcycles.com/img/assets/favicon.png"
   inkscape:export-xdpi="90"
   inkscape:export-ydpi="90">
  <defs
     id="defs3546" />
  <sodipodi:namedview
     id="base"
     pagecolor="#ffffff"
     bordercolor="#666666"
     borderopacity="1.0"
     inkscape:pageopacity="0.0"
     inkscape:pageshadow="2"
     inkscape:zoom="16"
     inkscape:cx="15.44618"
     inkscape:cy="10.824463"
     inkscape:current-layer="g4008"
     showgrid="true"
     inkscape:grid-bbox="true"
     inkscape:document-units="px"
     inkscape:snap-global="true"
     inkscape:snap-nodes="false"
     inkscape:snap-bbox="true"
     inkscape:showpageshadow="false"
     inkscape:window-width="1366"
     inkscape:window-height="720"
     inkscape:window-x="0"
     inkscape:window-y="0"
     inkscape:window-maximized="1">
    <inkscape:grid
       type="xygrid"
       id="grid4345"
       empspacing="5"
       visible="true"
       enabled="true"
       snapvisiblegridlinesonly="true" />
  </sodipodi:namedview>
  <metadata
     id="metadata3549">
    <rdf:RDF>
      <cc:Work
         rdf:about="">
        <dc:format>image/svg+xml</dc:format>
        <dc:type
           rdf:resource="http://purl.org/dc/dcmitype/StillImage" />
        <dc:title />
      </cc:Work>
    </rdf:RDF>
  </metadata>
  <g
     id="layer1"
     inkscape:label="Layer 1"
     inkscape:groupmode="layer">
    <g
       transform="matrix(0.42776363,0,0,-0.42776363,-96.916791,248.82867)"
       id="g4006"
       style="fill:#e00019;fill-opacity:1">
      <g
         transform="matrix(0.8769704,0,0,0.8769704,-119.23567,63.473466)"
         id="g4008"
         style="fill:#e00019;fill-opacity:1">
        <path
           inkscape:connector-curvature="0"
           d="m 434.48655,569.48344 c 0,2.65476 -0.48438,5.13652 -1.45633,7.43428 -0.92006,2.29776 -2.22384,4.28726 -3.90668,5.97796 -1.6891,1.68281 -3.68017,2.98503 -5.97793,3.90665 -2.29775,0.97037 -4.77954,1.45634 -7.43274,1.45634 -2.65475,0 -5.13653,-0.48597 -7.43428,-1.45634 -2.29777,-0.92162 -4.29355,-2.22384 -5.97796,-3.90665 -1.6828,-1.6907 -3.01648,-3.6802 -3.98686,-5.97796 -0.97038,-2.29776 -1.45637,-4.77952 -1.45637,-7.43428 0,-2.65321 0.48599,-5.13497 1.45637,-7.43274 0.97038,-2.24899 2.30406,-4.21491 3.98686,-5.89773 1.68441,-1.68911 3.68019,-3.01649 5.97796,-3.98688 2.29775,-0.9216 4.77953,-1.38242 7.43428,-1.38242 2.6532,0 5.13499,0.46082 7.43274,1.38242 2.29776,0.97039 4.28883,2.29777 5.97793,3.98688 1.68284,1.68282 2.98662,3.64874 3.90668,5.89773 0.97195,2.29777 1.45633,4.77953 1.45633,7.43274 m -7.12603,0 c 0,-1.78664 -0.30667,-3.44586 -0.92162,-4.98242 -0.61493,-1.52871 -1.45635,-2.86237 -2.52424,-3.98059 -1.02699,-1.07575 -2.24898,-1.94076 -3.68019,-2.61071 -1.38241,-0.60867 -2.88752,-0.91535 -4.5216,-0.91535 -1.63405,0 -3.17062,0.30668 -4.5955,0.91535 -1.43119,0.66995 -2.68467,1.53496 -3.76039,2.61071 -1.01914,1.11822 -1.83696,2.45188 -2.45033,3.98059 -0.61494,1.53656 -0.92161,3.19578 -0.92161,4.98242 0,1.78818 0.30667,3.4474 0.92161,4.9824 0.61337,1.53026 1.43119,2.85764 2.45033,3.98215 1.07572,1.12294 2.3292,1.99579 3.76039,2.60446 1.42488,0.66995 2.96145,1.00023 4.5955,1.00023 1.63408,0 3.13919,-0.33028 4.5216,-1.00023 1.43121,-0.60867 2.6532,-1.48152 3.68019,-2.60446 1.06789,-1.12451 1.90931,-2.45189 2.52424,-3.98215 0.61495,-1.535 0.92162,-3.19422 0.92162,-4.9824"
           id="path4012"
           style="fill:#ffffff;fill-opacity:1;fill-rule:nonzero;stroke:none" />
      </g>
    </g>
  </g>
</svg>
