<?xml version="1.0" encoding="UTF-8" standalone="no"?>
<!-- Created with Inkscape (http://www.inkscape.org/) -->

<svg
   xmlns:dc="http://purl.org/dc/elements/1.1/"
   xmlns:cc="http://creativecommons.org/ns#"
   xmlns:rdf="http://www.w3.org/1999/02/22-rdf-syntax-ns#"
   xmlns:svg="http://www.w3.org/2000/svg"
   xmlns="http://www.w3.org/2000/svg"
   xmlns:sodipodi="http://sodipodi.sourceforge.net/DTD/sodipodi-0.dtd"
   xmlns:inkscape="http://www.inkscape.org/namespaces/inkscape"
   width="16px"
   height="16px"
   id="svg3544"
   version="1.1"
   inkscape:version="0.48.2 r9819"
   sodipodi:docname="icon-moblin.svg"
   inkscape:export-filename="/Users/hbons/Desktop/outsidersmotorcycles.com/img/assets/favicon.png"
   inkscape:export-xdpi="90"
   inkscape:export-ydpi="90">
  <defs
     id="defs3546" />
  <sodipodi:namedview
     id="base"
     pagecolor="#ffffff"
     bordercolor="#666666"
     borderopacity="1.0"
     inkscape:pageopacity="0.0"
     inkscape:pageshadow="2"
     inkscape:zoom="16"
     inkscape:cx="15.44618"
     inkscape:cy="10.824463"
     inkscape:current-layer="layer1"
     showgrid="false"
     inkscape:grid-bbox="true"
     inkscape:document-units="px"
     inkscape:snap-global="true"
     inkscape:snap-nodes="false"
     inkscape:snap-bbox="true"
     inkscape:showpageshadow="false"
     inkscape:window-width="1366"
     inkscape:window-height="720"
     inkscape:window-x="0"
     inkscape:window-y="0"
     inkscape:window-maximized="1">
    <inkscape:grid
       type="xygrid"
       id="grid4345"
       empspacing="5"
       visible="true"
       enabled="true"
       snapvisiblegridlinesonly="true" />
  </sodipodi:namedview>
  <metadata
     id="metadata3549">
    <rdf:RDF>
      <cc:Work
         rdf:about="">
        <dc:format>image/svg+xml</dc:format>
        <dc:type
           rdf:resource="http://purl.org/dc/dcmitype/StillImage" />
        <dc:title />
      </cc:Work>
    </rdf:RDF>
  </metadata>
  <g
     id="layer1"
     inkscape:label="Layer 1"
     inkscape:groupmode="layer">
    <path
       style="font-size:medium;font-style:normal;font-variant:normal;font-weight:normal;font-stretch:normal;text-indent:0;text-align:start;text-decoration:none;line-height:normal;letter-spacing:normal;word-spacing:normal;text-transform:none;direction:ltr;block-progression:tb;writing-mode:lr-tb;text-anchor:start;baseline-shift:baseline;color:#000000;fill:#ffffff;fill-opacity:1;fill-rule:nonzero;stroke:none;stroke-width:9.00000095;marker:none;visibility:visible;display:inline;overflow:visible;enable-background:accumulate;font-family:Sans;-inkscape-font-specification:Sans"
       d="M 11.375 3.96875 A 4.5088076 4.5088076 0 0 0 11.1875 4 A 4.5004505 4.5004505 0 0 0 10.875 4.03125 L 3.875 5.03125 A 4.5122446 4.5122446 0 0 0 5.125 13.96875 L 12.125 12.96875 A 4.5088076 4.5088076 0 0 0 11.375 3.96875 z M 9.8125 7 L 10.1875 7 C 10.640446 7 11 7.3595539 11 7.8125 L 11 8.1875 C 11 8.6404461 10.640446 9 10.1875 9 L 9.8125 9 C 9.3595539 9 9 8.6404461 9 8.1875 L 9 7.8125 C 9 7.3595539 9.3595539 7 9.8125 7 z M 12.8125 7 L 13.1875 7 C 13.640446 7 14 7.3595539 14 7.8125 L 14 8.1875 C 14 8.6404461 13.640446 9 13.1875 9 L 12.8125 9 C 12.359554 9 12 8.6404461 12 8.1875 L 12 7.8125 C 12 7.3595539 12.359554 7 12.8125 7 z "
       id="path13760" />
    <path
       style="fill:none;stroke:#ffffff;stroke-width:2;stroke-linecap:round;stroke-linejoin:miter;stroke-miterlimit:4;stroke-opacity:1;stroke-dasharray:none"
       d="M 1,9.21875 C 1,4.2535218 2,2 6,2"
       id="path13790"
       inkscape:connector-curvature="0"
       sodipodi:nodetypes="cc" />
    <path
       style="fill:#ffffff;fill-opacity:1;stroke:none"
       d="M 8,4.5882353 C 8,4.5882353 8.3104182,3 9.7142855,3 10.772597,3 11,5 11,5 z"
       id="path13792"
       inkscape:connector-curvature="0"
       sodipodi:nodetypes="cscc" />
    <rect
       y="11"
       x="5"
       height="5"
       width="2"
       id="rect14405"
       style="color:#000000;fill:#ffffff;fill-opacity:1;fill-rule:nonzero;stroke:none;stroke-width:2;marker:none;visibility:visible;display:inline;overflow:visible;enable-background:accumulate"
       rx="0.25"
       ry="0.25" />
    <rect
       ry="0.25"
       rx="0.25"
       style="color:#000000;fill:#ffffff;fill-opacity:1;fill-rule:nonzero;stroke:none;stroke-width:2;marker:none;visibility:visible;display:inline;overflow:visible;enable-background:accumulate"
       id="rect14417"
       width="2"
       height="5"
       x="2"
       y="11" />
    <rect
       ry="0.25"
       rx="0.25"
       style="color:#000000;fill:#ffffff;fill-opacity:1;fill-rule:nonzero;stroke:none;stroke-width:2;marker:none;visibility:visible;display:inline;overflow:visible;enable-background:accumulate"
       id="rect14419"
       width="2"
       height="5"
       x="9"
       y="11" />
    <rect
       y="11"
       x="12"
       height="5"
       width="2"
       id="rect14421"
       style="color:#000000;fill:#ffffff;fill-opacity:1;fill-rule:nonzero;stroke:none;stroke-width:2;marker:none;visibility:visible;display:inline;overflow:visible;enable-background:accumulate"
       rx="0.25"
       ry="0.25" />
    <path
       sodipodi:nodetypes="cscc"
       inkscape:connector-curvature="0"
       id="path14425"
       d="M 14,4.9196916 C 14,4.9196916 13.704151,3 12.285715,3 11.227403,3 11,5 11,5 z"
       style="fill:#ffffff;fill-opacity:1;stroke:none" />
  </g>
</svg>
