<?xml version="1.0" encoding="UTF-8" standalone="no"?>
<!-- Created with Inkscape (http://www.inkscape.org/) -->

<svg
   xmlns:dc="http://purl.org/dc/elements/1.1/"
   xmlns:cc="http://creativecommons.org/ns#"
   xmlns:rdf="http://www.w3.org/1999/02/22-rdf-syntax-ns#"
   xmlns:svg="http://www.w3.org/2000/svg"
   xmlns="http://www.w3.org/2000/svg"
   xmlns:sodipodi="http://sodipodi.sourceforge.net/DTD/sodipodi-0.dtd"
   xmlns:inkscape="http://www.inkscape.org/namespaces/inkscape"
   width="16px"
   height="16px"
   id="svg3544"
   version="1.1"
   inkscape:version="0.48.2 r9819"
   sodipodi:docname="icon-robots.svg"
   inkscape:export-filename="/Users/hbons/Desktop/outsidersmotorcycles.com/img/assets/favicon.png"
   inkscape:export-xdpi="90"
   inkscape:export-ydpi="90">
  <defs
     id="defs3546" />
  <sodipodi:namedview
     id="base"
     pagecolor="#ffffff"
     bordercolor="#666666"
     borderopacity="1.0"
     inkscape:pageopacity="0.0"
     inkscape:pageshadow="2"
     inkscape:zoom="16"
     inkscape:cx="10.545206"
     inkscape:cy="8.2356283"
     inkscape:current-layer="g3867"
     showgrid="true"
     inkscape:grid-bbox="true"
     inkscape:document-units="px"
     inkscape:snap-global="true"
     inkscape:snap-nodes="false"
     inkscape:snap-bbox="true"
     inkscape:showpageshadow="false"
     inkscape:window-width="1366"
     inkscape:window-height="720"
     inkscape:window-x="0"
     inkscape:window-y="0"
     inkscape:window-maximized="1">
    <inkscape:grid
       type="xygrid"
       id="grid4345"
       empspacing="5"
       visible="true"
       enabled="true"
       snapvisiblegridlinesonly="true" />
  </sodipodi:namedview>
  <metadata
     id="metadata3549">
    <rdf:RDF>
      <cc:Work
         rdf:about="">
        <dc:format>image/svg+xml</dc:format>
        <dc:type
           rdf:resource="http://purl.org/dc/dcmitype/StillImage" />
        <dc:title></dc:title>
      </cc:Work>
    </rdf:RDF>
  </metadata>
  <g
     id="layer1"
     inkscape:label="Layer 1"
     inkscape:groupmode="layer">
    <g
       id="g3867"
       transform="translate(2.4999982,-31.227272)"
       style="fill:#ffffff;fill-opacity:1">
      <path
         style="color:#000000;fill:#ffffff;fill-opacity:1;fill-rule:nonzero;stroke:none;stroke-width:2;marker:none;visibility:visible;display:inline;overflow:visible;enable-background:accumulate"
         d="M 8.09375 0 C 4.1720131 0 1 3.1720131 1 7.09375 L 1 7.90625 C 1 11.827987 4.1720131 15 8.09375 15 L 8.90625 15 C 12.827987 15 16 11.827987 16 7.90625 L 16 7.09375 C 16 3.1720131 12.827987 0 8.90625 0 L 8.09375 0 z M 5 4 L 6 4 C 7.1017608 4 8 4.8982392 8 6 L 8 8 C 8 9.1017608 7.1017608 10 6 10 L 5 10 C 3.8982392 10 3 9.1017608 3 8 L 3 6 C 3 4.8982392 3.8982392 4 5 4 z M 11 4 L 12 4 C 13.101761 4 14 4.8982392 14 6 L 14 8 C 14 9.1017608 13.101761 10 12 10 L 11 10 C 9.8982392 10 9 9.1017608 9 8 L 9 6 C 9 4.8982392 9.8982392 4 11 4 z "
         transform="translate(-2.4999982,31.227272)"
         id="rect3833" />
      <path
         style="color:#000000;fill:#ffffff;fill-opacity:1;fill-rule:nonzero;stroke:none;stroke-width:2;marker:none;visibility:visible;display:inline;overflow:visible;enable-background:accumulate;opacity:0.8"
         d="m 2.593752,36.227272 c -0.602818,0 -1.09375,0.490932 -1.09375,1.09375 l 0,0.8125 c 0,0.602818 0.490932,1.09375 1.09375,1.09375 l 0.8125,0 c 0.602818,0 1.09375,-0.490932 1.09375,-1.09375 l 0,-0.8125 c 0,-0.602818 -0.490932,-1.09375 -1.09375,-1.09375 l -0.8125,0 z m 6,0 c -0.602818,0 -1.09375,0.490932 -1.09375,1.09375 l 0,0.8125 c 0,0.602818 0.490932,1.09375 1.09375,1.09375 l 0.8125,0 c 0.602818,0 1.09375,-0.490932 1.09375,-1.09375 l 0,-0.8125 c 0,-0.602818 -0.490932,-1.09375 -1.09375,-1.09375 l -0.8125,0 z"
         id="rect3817"
         inkscape:connector-curvature="0" />
    </g>
  </g>
</svg>
