<?xml version="1.0" encoding="UTF-8" standalone="no"?>
<!-- Created with Inkscape (http://www.inkscape.org/) -->

<svg
   xmlns:dc="http://purl.org/dc/elements/1.1/"
   xmlns:cc="http://creativecommons.org/ns#"
   xmlns:rdf="http://www.w3.org/1999/02/22-rdf-syntax-ns#"
   xmlns:svg="http://www.w3.org/2000/svg"
   xmlns="http://www.w3.org/2000/svg"
   xmlns:sodipodi="http://sodipodi.sourceforge.net/DTD/sodipodi-0.dtd"
   xmlns:inkscape="http://www.inkscape.org/namespaces/inkscape"
   width="16px"
   height="16px"
   id="svg6160"
   version="1.1"
   inkscape:version="0.48.5 r10040"
   sodipodi:docname="icon-redbubble.svg">
  <defs
     id="defs6162" />
  <sodipodi:namedview
     id="base"
     pagecolor="#ffffff"
     bordercolor="#666666"
     borderopacity="1.0"
     inkscape:pageopacity="0.0"
     inkscape:pageshadow="2"
     inkscape:zoom="22.627417"
     inkscape:cx="11.991454"
     inkscape:cy="7.0471841"
     inkscape:current-layer="layer1"
     showgrid="false"
     inkscape:grid-bbox="true"
     inkscape:document-units="px"
     inkscape:snap-nodes="false"
     inkscape:snap-bbox="true"
     inkscape:window-width="1920"
     inkscape:window-height="1035"
     inkscape:window-x="0"
     inkscape:window-y="0"
     inkscape:window-maximized="1">
    <inkscape:grid
       type="xygrid"
       id="grid6186" />
  </sodipodi:namedview>
  <metadata
     id="metadata6165">
    <rdf:RDF>
      <cc:Work
         rdf:about="">
        <dc:format>image/svg+xml</dc:format>
        <dc:type
           rdf:resource="http://purl.org/dc/dcmitype/StillImage" />
        <dc:title></dc:title>
      </cc:Work>
    </rdf:RDF>
  </metadata>
  <g
     id="layer1"
     inkscape:label="Layer 1"
     inkscape:groupmode="layer">
    <path
       style="color:#000000;fill:#ffffff;fill-opacity:1;fill-rule:nonzero;stroke:none;stroke-width:6;marker:none;visibility:visible;display:inline;overflow:visible;enable-background:accumulate"
       d="M 7.25 0 C 3.2342209 0 0 3.2342209 0 7.25 L 0 8.75 C 0 12.765779 3.2342209 16 7.25 16 L 8.75 16 C 12.765779 16 16 12.765779 16 8.75 L 16 7.25 C 16 3.2342209 12.765779 0 8.75 0 L 7.25 0 z M 3 5 L 6.3125 5 C 7.2387188 5 8 5.7612812 8 6.6875 L 8 7.3125 C 8 8.0177858 7.55271 8.6286092 6.9375 8.875 L 8 11 L 3 11 L 3 5 z M 9 5 L 11.75 5 C 12.4425 5 13 5.5575 13 6.25 L 13 6.75 C 13 6.8798438 12.973914 7.0074335 12.9375 7.125 C 13.55271 7.3713908 14 7.9822142 14 8.6875 L 14 9.3125 C 14 10.238719 13.238719 11 12.3125 11 L 9 11 L 9 5 z "
       id="rect4455" />
    <rect
       y="5"
       x="-9"
       height="6"
       width="2"
       id="rect4457"
       style="color:#000000;fill:#ef2929;fill-opacity:1;fill-rule:nonzero;stroke:none;stroke-width:6;marker:none;visibility:visible;display:inline;overflow:visible;enable-background:accumulate" />
    <rect
       ry="1.25"
       rx="1.25"
       style="color:#000000;fill:#ef2929;fill-opacity:1;fill-rule:nonzero;stroke:none;stroke-width:6;marker:none;visibility:visible;display:inline;overflow:visible;enable-background:accumulate"
       id="rect4459"
       width="4"
       height="3"
       x="-9"
       y="5" />
    <rect
       y="7"
       x="-8"
       height="4"
       width="4"
       id="rect4461"
       style="color:#000000;fill:#ef2929;fill-opacity:1;fill-rule:nonzero;stroke:none;stroke-width:6;marker:none;visibility:visible;display:inline;overflow:visible;enable-background:accumulate"
       rx="1.671875"
       ry="1.671875" />
    <path
       sodipodi:nodetypes="sccsss"
       inkscape:connector-curvature="0"
       id="path4463"
       d="m -12.5,8 1,0 1.5,3 -2.5,0 C -13.331,11 -14,10.331 -14,9.5 -14,8.669 -13.331,8 -12.5,8 z"
       style="color:#000000;fill:#ef2929;fill-opacity:1;fill-rule:nonzero;stroke:none;stroke-width:6;marker:none;visibility:visible;display:inline;overflow:visible;enable-background:accumulate" />
    <rect
       style="color:#000000;fill:#ef2929;fill-opacity:1;fill-rule:nonzero;stroke:none;stroke-width:6;marker:none;visibility:visible;display:inline;overflow:visible;enable-background:accumulate"
       id="rect4465"
       width="3"
       height="6"
       x="-15"
       y="5" />
    <rect
       style="color:#000000;fill:#ef2929;fill-opacity:1;fill-rule:nonzero;stroke:none;stroke-width:6;marker:none;visibility:visible;display:inline;overflow:visible;enable-background:accumulate"
       id="rect4467"
       width="3"
       height="1"
       x="-9"
       y="10" />
    <rect
       y="5"
       x="-14"
       height="4"
       width="4"
       id="rect4469"
       style="color:#000000;fill:#ef2929;fill-opacity:1;fill-rule:nonzero;stroke:none;stroke-width:6;marker:none;visibility:visible;display:inline;overflow:visible;enable-background:accumulate"
       rx="1.671875"
       ry="1.671875" />
  </g>
</svg>
