<?xml version="1.0" encoding="UTF-8" standalone="no"?>
<!-- Created with Inkscape (http://www.inkscape.org/) -->

<svg
   xmlns:dc="http://purl.org/dc/elements/1.1/"
   xmlns:cc="http://creativecommons.org/ns#"
   xmlns:rdf="http://www.w3.org/1999/02/22-rdf-syntax-ns#"
   xmlns:svg="http://www.w3.org/2000/svg"
   xmlns="http://www.w3.org/2000/svg"
   xmlns:sodipodi="http://sodipodi.sourceforge.net/DTD/sodipodi-0.dtd"
   xmlns:inkscape="http://www.inkscape.org/namespaces/inkscape"
   width="16px"
   height="16px"
   id="svg6160"
   version="1.1"
   inkscape:version="0.48.2 r9819"
   sodipodi:docname="icon-mail.svg">
  <defs
     id="defs6162" />
  <sodipodi:namedview
     id="base"
     pagecolor="#ffffff"
     bordercolor="#666666"
     borderopacity="1.0"
     inkscape:pageopacity="0.0"
     inkscape:pageshadow="2"
     inkscape:zoom="22.197802"
     inkscape:cx="8"
     inkscape:cy="8"
     inkscape:current-layer="layer1"
     showgrid="true"
     inkscape:grid-bbox="true"
     inkscape:document-units="px"
     inkscape:snap-nodes="false"
     inkscape:snap-bbox="true"
     inkscape:window-width="909"
     inkscape:window-height="945"
     inkscape:window-x="835"
     inkscape:window-y="49"
     inkscape:window-maximized="0">
    <inkscape:grid
       type="xygrid"
       id="grid6186" />
  </sodipodi:namedview>
  <metadata
     id="metadata6165">
    <rdf:RDF>
      <cc:Work
         rdf:about="">
        <dc:format>image/svg+xml</dc:format>
        <dc:type
           rdf:resource="http://purl.org/dc/dcmitype/StillImage" />
        <dc:title></dc:title>
      </cc:Work>
    </rdf:RDF>
  </metadata>
  <g
     id="layer1"
     inkscape:label="Layer 1"
     inkscape:groupmode="layer">
    <path
       style="fill:#ffffff;fill-opacity:1;stroke:none"
       d="m 5.8200695,0.753225 c -1.00425,-1.0043 -2.6213,-1.0043 -3.62562,0 l -1.08769,1.0877 c -1.60689003,1.6068 -1.44522003,4.3559 0.36256,6.1636 l 3.26309,3.2631 3.26308,3.2631 c 1.80775,1.8077 4.5566895,1.9695 6.1635695,0.3626 l 1.08772,-1.0877 c 1.00429,-1.0043 1.00428,-2.6214 10e-6,-3.6258 l -0.72513,-0.7251 c -1.00427,-1.0042 -2.62138,-1.0041 -3.62567,10e-5 l -0.36254,0.3625 c -0.36534,0.3653 -1.0929395,0.3573 -1.4502495,0 l -1.45027,-1.4502 -1.4503,-1.4503 c -0.35728,-0.3573 -0.36528,-1.0849 3e-5,-1.4502 l 0.3626,-0.3627 c 1.0043,-1.0043 1.00426,-2.6213 -4e-5,-3.6255 l -0.72515,-0.7252 z"
       id="rect6142"
       inkscape:connector-curvature="0" />
  </g>
</svg>
